<?xml version="1.0" encoding="utf-8"?>
<!-- Generator: Adobe Illustrator 22.0.0, SVG Export Plug-In . SVG Version: 6.00 Build 0)  -->
<svg version="1.1" id="Capa_1" xmlns="http://www.w3.org/2000/svg" xmlns:xlink="http://www.w3.org/1999/xlink" x="0px" y="0px"
	 viewBox="0 0 32.8 32.8" style="enable-background:new 0 0 32.8 32.8;" xml:space="preserve">
<style type="text/css">
	.st0{fill:#008993;}
	.st1{fill:#FFFFFF;}
</style>
<path class="st0" d="M29.4,1.3h-1.1c0-0.1,0.1-0.2,0.1-0.3c0-0.5-0.4-1-1-1s-1,0.4-1,1c0,0.1,0,0.2,0.1,0.3h-3.7
	c0-0.1,0.1-0.2,0.1-0.3c0-0.5-0.4-1-1-1c-0.5,0-1,0.4-1,1c0,0.1,0,0.2,0.1,0.3h-3.7c0-0.1,0.1-0.2,0.1-0.3c0-0.5-0.4-1-1-1
	s-1,0.4-1,1c0,0.1,0,0.2,0.1,0.3h-3.7c0-0.1,0.1-0.2,0.1-0.3c0-0.5-0.4-1-1-1c-0.5,0-1,0.4-1,1c0,0.1,0,0.2,0.1,0.3H6.3
	c0-0.1,0.1-0.2,0.1-0.3c0-0.5-0.4-1-1-1s-1,0.4-1,1c0,0.1,0,0.2,0.1,0.3H3.4C1.9,1.3,0.6,2.5,0.6,4v26c0,1.5,1.2,2.8,2.8,2.8h22.9
	l5.9-5.9V4C32.1,2.5,30.9,1.3,29.4,1.3z M30.6,26.3l-0.3,0.3H28c-1.1,0-2,0.9-2,2V31l-0.3,0.3H3.4c-0.7,0-1.3-0.6-1.3-1.3V9h28.5
	V26.3z"/>
<g>
	<path class="st1" d="M10.8,6.3h-1L9.5,6.9H8.9L10,4.1h0.5l1.1,2.8H11L10.8,6.3z M9.9,5.9h0.7l-0.4-1.1L9.9,5.9z"/>
	<path class="st1" d="M13.1,6.7C12.9,6.9,12.7,7,12.5,7S12.1,6.9,12,6.8s-0.2-0.3-0.2-0.6V4.8h0.6v1.4c0,0.2,0.1,0.3,0.3,0.3
		s0.3-0.1,0.4-0.2V4.8h0.6v2.1h-0.5L13.1,6.7z"/>
	<path class="st1" d="M13.9,5.8c0-0.3,0.1-0.6,0.2-0.8s0.4-0.3,0.6-0.3c0.2,0,0.4,0.1,0.5,0.2V4.7h0.5v2c0,0.2,0,0.3-0.1,0.5
		s-0.2,0.2-0.4,0.3s-0.3,0.1-0.5,0.1s-0.3,0-0.5-0.1s-0.3-0.1-0.3-0.2L14.2,7c0.1,0.2,0.3,0.2,0.5,0.2c0.1,0,0.3,0,0.3-0.1
		s0.1-0.2,0.1-0.3V6.7C15.2,6.9,15,7,14.8,7c-0.3,0-0.5-0.1-0.6-0.3S13.9,6.2,13.9,5.8L13.9,5.8z M14.5,5.9c0,0.2,0,0.3,0.1,0.5
		c0.1,0.1,0.2,0.2,0.3,0.2c0.2,0,0.3-0.1,0.4-0.2v-1c-0.1-0.1-0.2-0.2-0.4-0.2c-0.1,0-0.2,0.1-0.3,0.2S14.5,5.7,14.5,5.9z"/>
	<path class="st1" d="M17.6,6.7C17.4,6.9,17.2,7,17,7s-0.4-0.1-0.5-0.2s-0.2-0.3-0.2-0.6V4.8h0.6v1.4c0,0.2,0.1,0.3,0.3,0.3
		c0.2,0,0.3-0.1,0.4-0.2V4.8h0.6v2.1h-0.5L17.6,6.7z"/>
	<path class="st1" d="M19.7,6.3c0-0.1,0-0.1-0.1-0.2S19.4,6,19.3,6c-0.5-0.1-0.8-0.3-0.8-0.6c0-0.2,0.1-0.3,0.2-0.5s0.4-0.2,0.6-0.2
		c0.3,0,0.5,0.1,0.6,0.2s0.2,0.3,0.2,0.5h-0.6c0-0.1,0-0.1-0.1-0.2s-0.1-0.1-0.2-0.1S19,5.1,19,5.2s-0.1,0.1-0.1,0.2s0,0.1,0.1,0.2
		s0.2,0.1,0.3,0.1s0.3,0.1,0.4,0.1c0.3,0.1,0.4,0.3,0.4,0.6c0,0.2-0.1,0.3-0.2,0.5S19.6,7,19.4,7s-0.3,0-0.5-0.1s-0.2-0.1-0.3-0.3
		s-0.1-0.2-0.1-0.4H19c0,0.1,0,0.2,0.1,0.2s0.2,0.1,0.3,0.1c0.1,0,0.2,0,0.2-0.1S19.7,6.4,19.7,6.3z"/>
	<path class="st1" d="M21.3,4.3v0.5h0.4v0.4h-0.4v1.1c0,0.1,0,0.1,0,0.2s0.1,0.1,0.2,0.1s0.1,0,0.2,0V7c-0.1,0-0.2,0.1-0.3,0.1
		c-0.4,0-0.6-0.2-0.6-0.6V5.2h-0.3V4.8h0.3V4.3H21.3z"/>
	<path class="st1" d="M23.1,6.3c0-0.1,0-0.1-0.1-0.2S22.8,6,22.7,6c-0.5-0.1-0.8-0.3-0.8-0.6c0-0.2,0.1-0.3,0.2-0.5s0.4-0.2,0.6-0.2
		c0.3,0,0.5,0.1,0.6,0.2s0.2,0.3,0.2,0.5h-0.6c0-0.1,0-0.1-0.1-0.2s-0.1-0.1-0.2-0.1s-0.2,0-0.2,0.1s-0.1,0.1-0.1,0.2s0,0.1,0.1,0.2
		s0.2,0.1,0.3,0.1s0.3,0.1,0.4,0.1c0.3,0.1,0.4,0.3,0.4,0.6c0,0.2-0.1,0.3-0.2,0.5S23,7,22.8,7s-0.3,0-0.5-0.1S22,6.7,22,6.6
		s-0.1-0.2-0.1-0.4h0.5c0,0.1,0,0.2,0.1,0.2s0.2,0.1,0.3,0.1c0.1,0,0.2,0,0.2-0.1S23.1,6.4,23.1,6.3z"/>
</g>
<g>
	<path class="st0" d="M10.6,21.5c0.3,0.2,1.1,0.5,1.8,0.5c0.9,0,1.4-0.5,1.4-1c0-0.8-0.8-1.1-1.6-1.1h-0.7v-1.3h0.7
		c0.6,0,1.4-0.2,1.4-0.9c0-0.5-0.4-0.8-1.2-0.8c-0.6,0-1.3,0.3-1.6,0.5l-0.4-1.3c0.5-0.3,1.4-0.6,2.4-0.6c1.7,0,2.6,0.9,2.6,1.9
		c0,0.8-0.5,1.5-1.4,1.8v0c0.9,0.2,1.7,0.9,1.7,1.9c0,1.4-1.2,2.4-3.2,2.4c-1,0-1.9-0.3-2.3-0.6L10.6,21.5z"/>
	<path class="st0" d="M22.7,19.3c0,2.4-1,4.1-3,4.1c-2,0-2.9-1.8-2.9-4c0-2.3,1-4,3-4C21.9,15.3,22.7,17.2,22.7,19.3z M18.6,19.4
		c0,1.8,0.4,2.6,1.1,2.6c0.7,0,1.1-0.9,1.1-2.7c0-1.7-0.4-2.6-1.1-2.6C19.1,16.7,18.6,17.6,18.6,19.4z"/>
</g>
</svg>
