<svg id="Layer_1" data-name="Layer 1" xmlns="http://www.w3.org/2000/svg" xmlns:xlink="http://www.w3.org/1999/xlink" viewBox="0 0 194.23 56.89"><defs><style>.cls-1{fill:none;}.cls-2,.cls-4{fill:#fff;}.cls-3{clip-path:url(#clip-path);}.cls-4{fill-rule:evenodd;}</style><clipPath id="clip-path"><rect class="cls-1" x="-3.4" y="-0.19" width="198.99" height="54.83"/></clipPath></defs><title>100gadeslogo</title><rect class="cls-2" x="100.07" y="3" width="3.31" height="47.65"/><g class="cls-3"><path class="cls-2" d="M115.6,25.28c0,1.78-.51,2.64-1.62,2.64h-.91V22.21h.77a1.4,1.4,0,0,1,1.34.7,4.75,4.75,0,0,1,.42,2.37m1.91-.16a4.42,4.42,0,0,0-1.16-3.36,2.82,2.82,0,0,0-1.84-.84c-.34,0-1-.05-1.47-.05h-1.7v8.44h2c.5,0,.9,0,1.22,0a2.88,2.88,0,0,0,2-1.21,4.86,4.86,0,0,0,.85-2.93"/><path class="cls-2" d="M122.75,25.9H121.1c.18-.56.29-1,.45-1.57s.4-1.62.4-1.62.26,1.1.34,1.49c.18.81.46,1.7.46,1.7m2.83,3.41-2.66-8.46h-1.83l-2.77,8.46h1.78l.59-2h2.48l.59,2Z"/><polygon class="cls-2" points="131.4 20.89 125.31 20.89 125.31 22.29 127.38 22.29 127.38 29.31 129.1 29.31 129.1 22.29 131.12 22.29 131.4 20.89"/><path class="cls-2" d="M136.84,25.1c0,2.14-.5,3-1.68,3a1.6,1.6,0,0,1-1-.29c-.51-.36-.76-1.27-.76-2.73a4.87,4.87,0,0,1,.43-2.3,1.46,1.46,0,0,1,1.31-.74,1.52,1.52,0,0,1,1.48,1.06,6.68,6.68,0,0,1,.22,2m1.95-.05c0-2.65-1.38-4.29-3.63-4.29a3.67,3.67,0,0,0-1.74.42,4.26,4.26,0,0,0-1.91,3.94,5,5,0,0,0,1,3.13,3.11,3.11,0,0,0,2.75,1.19,3.19,3.19,0,0,0,1.68-.39c1.23-.66,1.88-2.1,1.88-4"/><path class="cls-2" d="M144.4,23.4a1.11,1.11,0,0,1-.33.84c-.23.21-.54.28-1.27.28h-.57V22.25h.61a2.8,2.8,0,0,1,.95.12,1,1,0,0,1,.61,1m2.28,5.91s-1.54-2.67-2-3.27a1.5,1.5,0,0,0-.36-.35,2.17,2.17,0,0,0,1.88-2.33,2.33,2.33,0,0,0-2.47-2.47h-3.14v8.42h1.66V25.79a1.07,1.07,0,0,1,.27.08c.3.13.55.54,1.39,2.06.33.59.46.82.79,1.38Z"/><rect class="cls-2" x="148.15" y="20.89" width="1.77" height="8.42"/><polygon class="cls-2" points="158.58 29.31 155.59 24.79 158.28 20.89 156.19 20.89 153.79 24.73 153.79 20.89 152.06 20.89 152.06 29.31 153.79 29.31 153.79 24.91 156.35 29.31 158.58 29.31"/><path class="cls-2" d="M162.89,25.9h-1.65c.18-.56.29-1,.45-1.57s.4-1.62.4-1.62l.34,1.49c.18.81.46,1.7.46,1.7m2.83,3.41-2.66-8.46h-1.83l-2.77,8.46h1.77l.6-2h2.47l.6,2Z"/><path class="cls-2" d="M172.51,26.65a2.54,2.54,0,0,0-2.14-2.51l-1-.28c-.7-.19-.93-.41-.93-.85a1,1,0,0,1,1.17-1,3.67,3.67,0,0,1,2,.64l.8-1.21a4.9,4.9,0,0,0-2.82-.85c-1.78,0-3,1.07-3,2.61a2.41,2.41,0,0,0,.35,1.28,2.58,2.58,0,0,0,1.67,1.07l.93.26c.75.2,1.11.54,1.11,1.09,0,.75-.51,1.15-1.48,1.15a4.72,4.72,0,0,1-2.32-.68l-.63,1.33a6.06,6.06,0,0,0,2.87.76c2.1,0,3.49-1.13,3.49-2.84"/><polygon class="cls-2" points="114.13 14.3 112.34 14.3 112.34 10.15 111.34 10.15 111.34 15.11 113.95 15.11 114.13 14.3"/><path class="cls-2" d="M117.09,13.12h-1v0c.1-.31.19-.61.27-.93s.16-.64.23-1l0-.06v.06c.07.3.14.59.2.89s.17.67.27,1Zm1.64,2-1.57-5H116.1l-1.63,5h1l.35-1.19h1.49l.35,1.19Z"/><polygon class="cls-2" points="122.39 10.15 118.82 10.15 118.82 10.96 120.04 10.96 120.04 15.11 121.03 15.11 121.03 10.96 122.23 10.96 122.39 10.15"/><path class="cls-2" d="M123.6,10.15h-1.07l1.69,5h.89l1.73-5h-1L125,12.61a8.78,8.78,0,0,0-.29,1v0c-.07-.3-.14-.59-.23-.87Z"/><rect class="cls-2" x="127.72" y="10.15" width="1.02" height="4.96"/><path class="cls-2" d="M131.24,10.15h-1v4.11a2.64,2.64,0,0,1-.1.93,1.56,1.56,0,0,1-.57.6l.45.5a1.84,1.84,0,0,0,1.15-1.16,4.48,4.48,0,0,0,.07-1Z"/><path class="cls-2" d="M134.8,13.12h-1v0c.1-.31.19-.61.27-.93s.16-.64.23-1l0-.06v.06c.07.3.14.59.2.89s.17.67.28,1Zm1.64,2-1.57-5h-1.06l-1.63,5h1l.35-1.19H135l.35,1.19Z"/><path class="cls-2" d="M140.11,11.18l.46-.69a2.91,2.91,0,0,0-1.65-.5,1.83,1.83,0,0,0-1.53.71,1.48,1.48,0,0,0-.24.82,1.54,1.54,0,0,0,.2.76,1.54,1.54,0,0,0,1,.62l.55.16c.35.09.67.26.67.66s-.42.69-.89.69a2.89,2.89,0,0,1-1.37-.39l-.36.75a3.55,3.55,0,0,0,1.68.45,2.09,2.09,0,0,0,1.81-.81,1.53,1.53,0,0,0,.24-.86,1.48,1.48,0,0,0-1.25-1.47l-.61-.17c-.28-.08-.56-.17-.56-.51a.63.63,0,0,1,.71-.59,2.18,2.18,0,0,1,1.16.37"/><polygon class="cls-2" points="191.94 15.11 191.94 14.27 190.05 14.27 190.05 12.91 191.47 12.91 191.47 12.12 190.04 12.12 190.04 10.94 191.75 10.94 191.88 10.15 189.06 10.15 189.06 15.11 191.94 15.11"/><polygon class="cls-2" points="188.39 10.15 184.82 10.15 184.82 10.95 186.04 10.95 186.04 15.11 187.03 15.11 187.03 10.95 188.23 10.95 188.39 10.15"/><path class="cls-2" d="M183.17,13.12h-1v0c.1-.31.18-.61.26-.93l.24-1v-.06l0,.06c.06.29.13.59.2.88s.17.68.27,1Zm1.63,2-1.56-5h-1.07l-1.63,5h1l.35-1.19h1.49l.35,1.19Zm-1.07-6h-2.07v.58h2.07Z"/><polygon class="cls-2" points="180.62 10.15 177.06 10.15 177.06 10.95 178.28 10.95 178.28 15.11 179.27 15.11 179.27 10.95 180.46 10.95 180.62 10.15"/><rect class="cls-2" x="175.18" y="10.15" width="1.02" height="4.96"/><path class="cls-2" d="M173.39,11.18l.46-.7a2.9,2.9,0,0,0-1.64-.49,1.79,1.79,0,0,0-1.53.7,1.47,1.47,0,0,0-.25.83,1.45,1.45,0,0,0,.21.76,1.52,1.52,0,0,0,1,.62l.56.15c.34.1.66.26.66.66s-.42.7-.89.7a2.9,2.9,0,0,1-1.37-.4l-.36.76a3.59,3.59,0,0,0,1.69.45,2.09,2.09,0,0,0,1.8-.81,1.53,1.53,0,0,0,.24-.86,1.5,1.5,0,0,0-1.25-1.48l-.6-.16c-.29-.08-.57-.18-.57-.52a.64.64,0,0,1,.71-.59,2.17,2.17,0,0,1,1.16.38"/><path class="cls-2" d="M168.21,11.62a.69.69,0,0,1-.2.51,1.12,1.12,0,0,1-.76.17h-.35V10.93h.37a1.82,1.82,0,0,1,.57.07.59.59,0,0,1,.37.62m1.31,3.49c-.19-.34-.39-.67-.59-1-.11-.18-.22-.36-.34-.54s-.16-.25-.25-.37a1.34,1.34,0,0,0-.21-.2l0,0h0a1,1,0,0,0,.29-.05,1.36,1.36,0,0,0,.81-1.31,1.37,1.37,0,0,0-1.45-1.45h-1.85v5h1V13h0a.53.53,0,0,1,.17,0,1,1,0,0,1,.3.31c.19.29.36.61.53.92s.3.54.46.81Z"/><polygon class="cls-2" points="164.73 15.11 164.73 14.27 162.84 14.27 162.84 12.91 164.25 12.91 164.25 12.12 162.82 12.12 162.82 10.94 164.53 10.94 164.66 10.15 161.84 10.15 161.84 15.11 164.73 15.11"/><path class="cls-2" d="M157.71,10.15h-1.07l1.69,5h.89l1.73-5h-1l-.84,2.46a8.62,8.62,0,0,0-.29,1v.07l0-.07a8.37,8.37,0,0,0-.23-.86Z"/><rect class="cls-2" x="154.7" y="10.15" width="1.02" height="4.96"/><path class="cls-2" d="M150.8,10.15h-1.09v5h.94l0-2.12c0-.47,0-1-.05-1.41h0a3.9,3.9,0,0,0,.21.57l.33.77.13.3.85,1.9h1v-5h-.93l0,2c0,.45,0,.92.08,1.37v0h0a8.55,8.55,0,0,0-.54-1.41Z"/><path class="cls-2" d="M148.16,10.15h-1v3.18a3.2,3.2,0,0,1,0,.44.7.7,0,0,1-.78.6.72.72,0,0,1-.69-.35,1.4,1.4,0,0,1-.09-.61V10.15h-1v3.46a1.51,1.51,0,0,0,.21.93,1.83,1.83,0,0,0,1.59.66,2.1,2.1,0,0,0,1.2-.32,1.34,1.34,0,0,0,.49-.61s0-.1,0-.15a3.29,3.29,0,0,0,0-.63Z"/><polygon class="cls-2" points="115.92 35.06 111.34 35.06 111.34 43.48 113.04 43.48 113.04 39.73 115.19 39.73 115.19 38.35 113.04 38.35 113.04 36.43 115.73 36.43 115.92 35.06"/><path class="cls-2" d="M120.54,40.07h-1.65c.18-.56.29-1,.45-1.56s.4-1.63.4-1.63l.34,1.49c.18.82.46,1.7.46,1.7m2.83,3.41L120.71,35h-1.83l-2.77,8.46h1.77l.6-2H121l.6,2Z"/><polygon class="cls-2" points="131.35 43.48 128.36 38.96 131.05 35.06 128.96 35.06 126.56 38.9 126.56 35.06 124.82 35.06 124.82 43.48 126.56 43.48 126.56 39.08 129.12 43.48 131.35 43.48"/><path class="cls-2" d="M138.53,40.73V35.06h-1.72v5.39a6.41,6.41,0,0,1,0,.75,1.14,1.14,0,0,1-1.29,1,1.21,1.21,0,0,1-1.16-.58,2.38,2.38,0,0,1-.14-1V35.06h-1.74v5.86a2.5,2.5,0,0,0,.37,1.59,3,3,0,0,0,2.7,1.13c1.83,0,2.65-.92,2.87-1.59a3.43,3.43,0,0,0,.13-1.32"/><polygon class="cls-2" points="145.42 42.08 142.4 42.08 142.4 35.06 140.66 35.06 140.66 43.48 145.12 43.48 145.42 42.08"/><polygon class="cls-2" points="151.24 35.06 145.16 35.06 145.16 36.47 147.22 36.47 147.22 43.48 148.94 43.48 148.94 36.47 150.96 36.47 151.24 35.06"/><path class="cls-2" d="M156.74,33.29h-3.81V34.4h3.81Zm-1.14,6.78H154c.18-.56.29-1,.45-1.56s.4-1.63.4-1.63l.34,1.49c.18.82.46,1.7.46,1.7m2.83,3.41L155.77,35h-1.83l-2.77,8.46h1.77l.6-2H156l.6,2Z"/><polygon class="cls-2" points="164.57 35.06 158.49 35.06 158.49 36.47 160.56 36.47 160.56 43.48 162.28 43.48 162.28 36.47 164.3 36.47 164.57 35.06"/><polygon class="cls-2" points="170.51 43.48 170.51 42.03 167.32 42.03 167.32 39.77 169.71 39.77 169.71 38.38 167.3 38.38 167.3 36.44 170.19 36.44 170.41 35.06 165.6 35.06 165.6 43.48 170.51 43.48"/><path class="cls-2" d="M68.57,2.39A24,24,0,0,0,53.25,7.88,24.22,24.22,0,0,0,16.4,15.44V2.94h-3l-12,14.47,3.6,2.77L11,12.84V50.37h5.4V37.83a24.24,24.24,0,0,0,36.84,7.55,24.25,24.25,0,1,0,15.33-43M19.15,26.62c0-10.94,8.31-19.11,18.76-19.11a18.68,18.68,0,0,1,11.74,4.05,24.28,24.28,0,0,0,0,30.13,18.68,18.68,0,0,1-11.72,4c-10.45,0-18.76-8.17-18.76-19.11M68.64,45.73c-10.46,0-18.77-8.17-18.77-19.11S58.18,7.51,68.64,7.51s18.77,8.17,18.77,19.11S79.1,45.73,68.64,45.73"/><path class="cls-4" d="M71.37,35.29c.15,0,.45-.28.61-.2s.06,0,.07.13v.09a.4.4,0,0,1,0,.11c0,.55,0,1,0,1.55,0,.23,0,.46,0,.69s0,.27,0,.4a1.27,1.27,0,0,0,.06.28.46.46,0,0,0,.08.13l0,0c.14.12.3.21.44.32l0,.05a5.56,5.56,0,0,1,.47.5,6.24,6.24,0,0,1,.5.65,3.11,3.11,0,0,1,.32.56.15.15,0,0,1,0,.11c0,.07,0,.08-.11.1l-.06,0-.28.07a.39.39,0,0,1-.18,0h-.08a2.14,2.14,0,0,1-.46-.17l-1.6-.65c-.34-.14-.43-.08-.55-.47a3.84,3.84,0,0,1-.11-.46c-.06-.29-.11-.58-.17-.86,0-.07,0-.28-.13-.3h-.06c-.08,0-.08.23-.09.31A11.36,11.36,0,0,1,70,39.59a3.75,3.75,0,0,1-.21.5,3.34,3.34,0,0,1-.55.69,3.37,3.37,0,0,1-.38.28.44.44,0,0,1-.48-.17L68,40.28l-.27-.4a.65.65,0,0,1-.11-.22.7.7,0,0,1,0-.25c.06-.5.1-1,.12-1.49s0-.81,0-1.22a2.53,2.53,0,0,0,0-.27v0c0-.25-.06-.34-.13-.35s0,0-.06,0a2,2,0,0,0-.1.59,6.21,6.21,0,0,1-.8,3,.91.91,0,0,1-.54.4l-.43,0h-.13l-.54.27-.15.07a1.75,1.75,0,0,1-1,.15l-.07,0c-.12,0-.2-.09-.14-.22s.17-.32.26-.48a4.17,4.17,0,0,1,.62-.91c.32-.28,1-.77,1.12-1.15l0-.09a24.93,24.93,0,0,0,.06-3.13.69.69,0,0,0,0-.2,1.2,1.2,0,0,0-.1-.28,9.88,9.88,0,0,1-.47-1.35,1.89,1.89,0,0,0-.09-.34.57.57,0,0,0-.13-.21.55.55,0,0,0-.23-.14c-.42-.18-.89-.37-1.29-.56a5.32,5.32,0,0,1-.66-.37.74.74,0,0,1-.18-.17.54.54,0,0,1-.07-.46c.1-.18.3-.13.46-.07l.14.06a4.09,4.09,0,0,0,.93.25c.09,0,.14,0,.07-.18a.67.67,0,0,0-.06-.12L64,30.31l-.09-.15a10.28,10.28,0,0,1-.54-1.05.93.93,0,0,1,0-.13c-.08-.3.21-.41.41-.26a.88.88,0,0,1,.23.24c.3.44.52,1,.88,1.45a1,1,0,0,0,.45.38,7.94,7.94,0,0,1,.75.42,2.81,2.81,0,0,1,.49.84c.16.32.3.65.43,1a7.4,7.4,0,0,1,.38,1.32c0,.23.07.42.14.64s0,.12.11.11.11-.22.11-.35a1,1,0,0,0,0-.14v-.13a2.09,2.09,0,0,0,0-.25c0-.17,0-.34,0-.52s0-.25,0-.37a7.2,7.2,0,0,0-.83-1.78c-.27-.46-.8-1.31-1.12-1.73-.11-.14-.74-.49-1-.78a.29.29,0,0,1-.06-.3.31.31,0,0,1,.12-.15.24.24,0,0,1,.16,0,5.18,5.18,0,0,1,.57.23.49.49,0,0,0,.3.1c.1,0,.12-.08.13-.17s0-.26,0-.4a.59.59,0,0,1,0-.21c0-.12.12-.16.2-.13s.24.29.24.5a4.1,4.1,0,0,0,.11.9,1.36,1.36,0,0,0,.39.67,6.65,6.65,0,0,1,.89,1,1.5,1.5,0,0,1,.19.73A.71.71,0,0,0,68,32a.14.14,0,0,0,.1.07c.11,0,.17,0,.18-.14a2.26,2.26,0,0,0,0-.26v-.45a2.19,2.19,0,0,0,0-.36.5.5,0,0,0,0-.13.51.51,0,0,0-.09-.16,10.46,10.46,0,0,1-.79-1.14,12,12,0,0,1-.46-1.12,4.75,4.75,0,0,0-1.39-1.81c-.1-.06-.34-.15-.51-.26l0,0a.38.38,0,0,1-.09-.09.2.2,0,0,1,.14-.29H65a1.26,1.26,0,0,0,.54.13.13.13,0,0,0,.07,0,.17.17,0,0,0,.06-.1.57.57,0,0,0,0-.26c0-.24-.18-.57-.23-.87a.66.66,0,0,1,0-.28.28.28,0,0,1,.21-.26c.19,0,.3.22.34.37a.65.65,0,0,0,0,.13,4.2,4.2,0,0,0,.79,1.93,9,9,0,0,0,1,.94l.22.2.06.05c.07,0,.11,0,.13,0a.47.47,0,0,0,0-.33c0-.06-.13-.18-.19-.28a1.88,1.88,0,0,1-.31-.62v-.12a.68.68,0,0,1,0-.14c0-.17,0-.3.07-.46a1.25,1.25,0,0,0,0-.21v-.12c0-.24-.13-.82,0-1a.35.35,0,0,1,.07-.09l.09-.07a.91.91,0,0,1,.26-.13.5.5,0,0,1,.27,0,.17.17,0,0,1,.1,0,.36.36,0,0,1,.13.14,7.15,7.15,0,0,1,.42,1.18,1.79,1.79,0,0,1,.09.19,1.05,1.05,0,0,0,.17.27.12.12,0,0,0,.16,0,.15.15,0,0,0,0-.1c0-.05,0-.18,0-.26v-.07s0-.08,0-.11a.62.62,0,0,1,0-.13l0-.07a5.22,5.22,0,0,0,.49-1.69.32.32,0,0,1,.3-.29h0a.43.43,0,0,1,.16,0l.08,0c.24.06.27.22.24.48v.1c-.06.48-.07,1-.1,1.46v.21c0,.43-.23.43-.45.44a.68.68,0,0,0-.68.49l-.06.19c0,.06,0,.11-.07.17a2.58,2.58,0,0,0-.08.26.92.92,0,0,0,0,.62,1.51,1.51,0,0,1,.1.28.61.61,0,0,1-.21.5c-.26.26-.48.27-.55.87a1.18,1.18,0,0,0,.63,1.1.68.68,0,0,0,.32,0l.2,0H70a.37.37,0,0,1,.32.08.9.9,0,0,0,1.2-.25c.07-.09.13-.22.25-.25h0a.27.27,0,0,1,.21.06,2.62,2.62,0,0,1-.14.8l0,.06c-.12.18-.29.35-.42.52a3.25,3.25,0,0,0-.23.29L71,32a.27.27,0,0,0-.07.16c0,.09,0,.17.17.11a3.68,3.68,0,0,0,.56-.45l.27-.25.44-.45a3.58,3.58,0,0,1,1.07-.73c.27,0,.52,0,.61.31a.57.57,0,0,1-.16.68,8.06,8.06,0,0,0-1,1.29c0,.12-.62,1.25-.72,1.39a7.19,7.19,0,0,1-.72.76l-.17.18a.38.38,0,0,0-.09.09c-.1.13,0,.28.18.24m-9.82-4.91c.18-.16.39,0,.47.16s.06.41-.11.48c-.34.15-.64-.42-.36-.64m.6,2.27a.32.32,0,0,1-.45.13c-.1-.06-.18.1-.22.16a.86.86,0,0,1-.48.36.48.48,0,0,1-.42-.07.44.44,0,0,1-.18-.33,1,1,0,0,1,.07-.44.43.43,0,0,0,.08-.33.77.77,0,0,0-.17-.19c-.23-.23-.35-.45-.11-.73s.29-.2.29-.44a.27.27,0,0,1,.11-.22.3.3,0,0,1,.26,0,.33.33,0,0,1,.23.19c.13.27-.21.57-.38.73s-.17.17-.14.21.18,0,.21,0l.12-.07c.17-.11.35-.14.34.13a1.93,1.93,0,0,1-.08.47c0,.05-.08.3,0,.32s.07,0,.09,0a.54.54,0,0,0,.1-.16,2.83,2.83,0,0,0,.11-.31.37.37,0,0,1,.16-.21.13.13,0,0,1,.09,0c.25,0,.37.21.42.43a.82.82,0,0,1,0,.49M60,30.14a.67.67,0,0,1-.78.42.85.85,0,0,1-.59-.57.52.52,0,0,1,0-.11.37.37,0,0,1,0-.18c0-.08.08-.23,0-.32a1,1,0,0,0-.19-.15.24.24,0,0,1-.08-.06c-.19-.22,0-.54.15-.72l.08-.11.13-.18a.53.53,0,0,0,0-.18,1.16,1.16,0,0,1,0-.18.6.6,0,0,1,.2-.27.22.22,0,0,1,.22,0,.2.2,0,0,1,.07.2.62.62,0,0,1-.07.19l-.19.36s-.07.14,0,.16,0,0,.07,0a2.52,2.52,0,0,0,.25-.21s.15-.16.2-.12,0,.43,0,.52,0,.19-.08.28c-.06.24-.17.46-.24.7a.19.19,0,0,0,0,.08c0,.12.07.08.13,0l0,0c.25-.22.39-.31.59,0a.56.56,0,0,1,.07.47m0,2.39a.89.89,0,0,1-.41.7.26.26,0,0,1-.24,0c-.22-.06-.29-.36-.3-.56s0-.34.12-.37a.25.25,0,0,1,.12,0l.11,0h0c.06,0,.22.07.25,0s0-.08-.06-.1l-.23-.16,0,0c-.35-.2-.63-.77-.16-1h0c.22-.08.57-.09.71.13a.33.33,0,0,1,0,.29c0,.15-.16.33-.09.49s.08.19.13.28a.8.8,0,0,1,.08.16.21.21,0,0,1,0,.11M58.29,33a.72.72,0,0,1-.27.15,1,1,0,0,1-.24,0,.25.25,0,0,1-.25-.11.22.22,0,0,1-.05-.08.15.15,0,0,0,0-.06h0a.23.23,0,0,0-.11.11l-.15.17a.43.43,0,0,1-.57,0,1.08,1.08,0,0,1-.28-.24.82.82,0,0,1-.19-.94,1.11,1.11,0,0,1,.82-.41h.2c.07,0,.15,0,.18.08a.23.23,0,0,1-.05.21,1.46,1.46,0,0,1-.36.34s-.19.14-.11.18.14,0,.19,0a1.35,1.35,0,0,0,.49-.4l.08-.09s.13-.13.19-.1.06.19.06.25v.09c0,.08,0,.41.15.4s0-.06,0-.08c0-.25,0-1.24.32-1.25a.23.23,0,0,1,.2.18,1.42,1.42,0,0,1,.06.46c0,.33,0,.89-.25,1.12m-2.22-2.52a.26.26,0,0,0-.12-.17.52.52,0,0,0-.13-.06c-.45-.12-.37-.51-.16-.81s.33-.29.41-.52a2.42,2.42,0,0,0,0-.46s0-.05,0-.07.2-.22.35-.27A1.94,1.94,0,0,0,56.8,28c.21-.08.4-.28.53-.31s.26,0,0,.31l-.09.12a4.18,4.18,0,0,1-.56.73,5,5,0,0,0-.4.4,1.25,1.25,0,0,0-.26.4h0a.05.05,0,0,0,0,0,.13.13,0,0,0,.09,0,2.29,2.29,0,0,1,.21-.23,1.84,1.84,0,0,1,.22-.17s.13-.09.15-.08h0a1.22,1.22,0,0,1,0,.17,2.89,2.89,0,0,0-.13,1.16c0,.06.06,0,.07,0a1,1,0,0,0,0-.18c0-.1,0-.2.07-.3s.14-.59.24-.54.1.19.13.23a1,1,0,0,0,.32.4s0,0,.06,0-.08-.21-.1-.24a1.42,1.42,0,0,1,.11-1.75l.07-.09c.31-.38.6-.39.46.14l0,.12a2.08,2.08,0,0,0-.2.89.89.89,0,0,0,.09.38c.15.35.38.82,0,1.14a.33.33,0,0,1-.34.05c-.1,0-.18-.1-.27-.12a.25.25,0,0,0-.23.13c-.06.07-.11.15-.18.22a.5.5,0,0,1-.87-.36s0-.09,0-.13m-.9,1.29a.38.38,0,0,1-.15-.45.47.47,0,0,1,.41-.34.36.36,0,0,1,.29.17.35.35,0,0,1,.06.26.44.44,0,0,1-.19.27c-.11.08-.3.16-.42.09m-1-2.17s.15-.07.18,0,0,0,0,.05a1.09,1.09,0,0,0-.05.17,1.35,1.35,0,0,0,0,.49c0,.11.1.12.11,0a1.45,1.45,0,0,1,.11-.5.81.81,0,0,1,.1-.18.64.64,0,0,1,.2-.2.17.17,0,0,1,.17,0,.2.2,0,0,1,.08.15.76.76,0,0,1-.06.26,1.26,1.26,0,0,0-.09.54c0,.28-.06.56-.37.65a.53.53,0,0,1-.17,0,.43.43,0,0,1-.35-.11,1.13,1.13,0,0,1-.11-.22c0-.08-.07-.12-.16-.11l-.1,0a.37.37,0,0,1-.27.05.58.58,0,0,1-.37-.36.69.69,0,0,1,.1-.68,1.14,1.14,0,0,1,.11-.11c.27-.22.11-.24.22-.49a.36.36,0,0,1,.07-.1.58.58,0,0,1,.29-.15.81.81,0,0,1,.69.11c.12.08.2.19,0,.28-.41.24-.6.25-.92.67,0,0,0,.06,0,.08s.16-.06.19-.08h0a2.08,2.08,0,0,1,.34-.24m1-3.71a1.13,1.13,0,0,1,.18.12c.06.05.16.14.13.23s-.13.08-.2.08a2.06,2.06,0,0,1-.55-.06,1.1,1.1,0,0,0-.67.07c-.22.1-.56.19-.74,0a.58.58,0,0,1-.08-.22.89.89,0,0,1,0-.23c0-.26-.12-.21-.28-.45-.26-.4,0-1.11.49-1.08a.71.71,0,0,1,.2,0,1.38,1.38,0,0,1,.3.14l.22.11a.34.34,0,0,0,.22,0,1.47,1.47,0,0,1,.22-.1.46.46,0,0,1,.39.14,1.54,1.54,0,0,1,.28.29,2.33,2.33,0,0,1,.31.5c0,.08.1.27,0,.35a.1.1,0,0,1-.07,0,.19.19,0,0,1-.13,0c-.15,0-.26-.24-.33-.38a2.42,2.42,0,0,0-.31-.5s-.06-.05-.08,0,0,.15,0,.19l.08.17a.77.77,0,0,1,.08.19c0,.09-.08.05-.12,0l-.47-.21a1.59,1.59,0,0,0-.45-.15c-.05,0-.23,0-.24,0s0,.08.06.09a5.11,5.11,0,0,1,.64.27c.09.06,0,.12-.05.14a2.71,2.71,0,0,0-.42.2s-.12.08-.11.12.17,0,.2,0a1.5,1.5,0,0,1,1.26,0m-1.08-3.77a1.23,1.23,0,0,0,.45-.3c.11-.12.24-.32.43-.23a.27.27,0,0,1,.09.36,1.55,1.55,0,0,1-.89.63s-.19.08-.17.13.12,0,.15,0l.31-.09c.07,0,.12,0,.07.08l0,.08a1.58,1.58,0,0,0-.13.26.81.81,0,0,0-.07.37s0,.06,0,.07.08-.1.09-.12a3.15,3.15,0,0,1,.28-.55,5,5,0,0,1,.32-.44c.07-.09.11-.07.14,0s0,.2.06.3.09.27.16.25,0-.09,0-.12a1.11,1.11,0,0,0,0-.19,1.88,1.88,0,0,1,0-.33V22c0-.07.06-.32.14-.33s.17.25.19.31a2.74,2.74,0,0,1,.1.69c0,.11,0,.23,0,.33a.67.67,0,0,1-.22.44.48.48,0,0,1-.33.1l-.09,0c-.07,0-.11-.1-.17,0l0,0a.75.75,0,0,1-.74.48.53.53,0,0,1-.5-.8c0-.07.14-.21.12-.28a.47.47,0,0,0-.07-.12.39.39,0,0,1-.08-.1.61.61,0,0,1,0-.12.33.33,0,0,1,.06-.29,1.28,1.28,0,0,1,.44-.21M53.86,21a.41.41,0,0,1,.54-.2.33.33,0,0,1,.11.53c-.19.22-.65,0-.66-.25a.22.22,0,0,1,0-.08m1-.55a.32.32,0,0,1,.15-.21c.09-.07.17-.1.19-.22a1.21,1.21,0,0,0,0-.19,1.08,1.08,0,0,1,0-.19c.08-.43.35-.59.75-.38a.18.18,0,0,0,.21,0,.26.26,0,0,1,.29.11.35.35,0,0,1,.06.35,1.65,1.65,0,0,1-.18.32c-.15.2-.41.43-.53.08,0-.05-.09-.31-.16-.29s0,.11,0,.13a4.51,4.51,0,0,0,0,.52v0a.34.34,0,0,1-.09.32.46.46,0,0,1-.61,0,.37.37,0,0,1-.08-.35m2.34.38a.42.42,0,0,0,0,.1.24.24,0,0,0,.06.1l.06,0h.1c.14,0,.27.08.3.23a.28.28,0,0,0,0,.09.72.72,0,0,1-.06.29c-.07.19-.18.43-.38.5s-.32-.15-.38-.29a1.64,1.64,0,0,1-.1-.38,1.52,1.52,0,0,0-.06-.2s0-.06-.07-.06a.12.12,0,0,0,0,.08.89.89,0,0,0,0,.23,2.48,2.48,0,0,0,.12.54s0,.08,0,.11.08.17,0,.23a.23.23,0,0,1-.16,0h-.12s-.13,0-.13.07,0,.05,0,.06l.06,0a1.58,1.58,0,0,1,.71.28c.19.15.28.42,0,.54a.48.48,0,0,1-.24,0,.73.73,0,0,1-.5-.27,2.69,2.69,0,0,1-.3-.37,1.58,1.58,0,0,1-.13-.26c0-.13.06-.26.14-.35s0-.38,0-.53a.81.81,0,0,1,0-.87.87.87,0,0,1,.32-.25.5.5,0,0,1,.36,0,.46.46,0,0,1,.29.3m-.16-2.48a.52.52,0,0,1,.55,0l.09.05a.48.48,0,0,0,.26.07,1.29,1.29,0,0,0,.19,0l.12,0h.08a.44.44,0,0,1,.28.08.5.5,0,0,1,.16.65.54.54,0,0,1-.05.11.64.64,0,0,1-.43.3l-.07,0c-.09,0-.21,0-.27-.05a.14.14,0,0,1-.05-.1.75.75,0,0,1,.21-.51s.07-.1.05-.13-.06,0-.08,0-.2.2-.32.31,0,0-.06,0l-.13-.18a.69.69,0,0,0-.17-.17s-.07-.06-.09-.05,0,.08,0,.1,0,0,0,.08l0,.07.06.11a1.48,1.48,0,0,1,.1.36.28.28,0,0,1-.26.33h-.15a.35.35,0,0,1-.2-.4.28.28,0,0,0,0-.13.86.86,0,0,0-.12-.35.39.39,0,0,1,0-.28.43.43,0,0,1,.19-.23m3.28,1.79.09.06a.61.61,0,0,1,0,.6,1.1,1.1,0,0,1-.24.42.34.34,0,0,1-.29.14c-.19,0-.26-.31-.28-.48a2.12,2.12,0,0,1,0-.44.71.71,0,0,0,0-.14,1.41,1.41,0,0,0,0-.21c0-.26-.12-.12-.13,0a1.7,1.7,0,0,0,0,.22c-.06.27,0,.64-.34.74a.44.44,0,0,1-.41-.09.61.61,0,0,1-.19-.52c0-.21.21-.29.37-.37a.37.37,0,0,0,.2-.13.27.27,0,0,0,0-.18.57.57,0,0,1,.11-.48.63.63,0,0,1,.4-.21.61.61,0,0,1,.47.11.55.55,0,0,1,.17.53c0,.25-.09.27.12.43M61.87,19c-.12,0-.19-.14-.22-.23a.78.78,0,0,0,0-.14,3.4,3.4,0,0,1-.16-.77,4.86,4.86,0,0,0-.14-.93c0-.09,0-.12-.06-.12s-.06.27-.05.42,0,.21,0,.31,0,.16,0,.17h0s-.1-.11-.11-.13a4.4,4.4,0,0,0-.64-.72s-.23-.2-.27-.16,0,.12.05.14l.09.11.25.32s.29.35.19.4a.94.94,0,0,1-.27-.06,1.23,1.23,0,0,0-.54,0,.1.1,0,0,0-.07,0c0,.06.23.08.27.08a1.51,1.51,0,0,1,1.2.74c.09.15.31.53.09.67A.37.37,0,0,1,61,19a2.08,2.08,0,0,1-.21-.21,1.56,1.56,0,0,0-.29-.33.74.74,0,0,0-.41-.1.83.83,0,0,1-.64-.28.69.69,0,0,1-.1-.19.51.51,0,0,1,.23-.65.15.15,0,0,0,.06-.05c0-.09,0-.31-.05-.4a1.55,1.55,0,0,0,0-.21.55.55,0,0,1,0-.31.53.53,0,0,1,.34-.28.62.62,0,0,1,.51.1l.12.08.14.05h.12c.05,0,.08-.05.12-.08s.09-.11.17-.14.31.11.4.2.17.35.22.61a1,1,0,0,0,.08.23.49.49,0,0,0,.18.17.72.72,0,0,1,.26.23c.12.19.05.34,0,.53a2.67,2.67,0,0,0-.09.26c0,.18,0,.66-.24.68m-1.11-4c.24-.33.87.24.57.57h0a.41.41,0,0,1-.52,0,.4.4,0,0,1-.14-.26.5.5,0,0,1,.09-.32m1.46-1.21a.69.69,0,0,1,.81.09.38.38,0,0,1,0,.37.27.27,0,0,1-.36.17s-.18-.09-.23,0,.06.24.09.29a.74.74,0,0,1,.12.31.66.66,0,0,1-.26.67.51.51,0,0,1-.27,0c-.28,0-.28-.33-.27-.54a1.15,1.15,0,0,0-.15-.44.49.49,0,0,1-.05-.2.57.57,0,0,1,.09-.36.87.87,0,0,1,.44-.36m1.33-1.18a1.1,1.1,0,0,1,.89-.1c.08,0,.26.08.31,0s0-.1,0-.13.11-.12.19-.13a.72.72,0,0,1,.7.32,1,1,0,0,1,.2.5.56.56,0,0,0,.23.37l.09.06a.93.93,0,0,1,.35.43c.08.2.08.53-.18.61s-.48-.19-.6-.37A2.92,2.92,0,0,1,65.37,13a.65.65,0,0,0,0-.13s0-.05,0-.05,0,.1-.06.12a.76.76,0,0,0,0,.15,1,1,0,0,0,0,.24c0,.13,0,.12-.11.05a3.32,3.32,0,0,0-.5-.33L64.32,13s-.18,0-.21,0,0,.09.07.11l.43.25a1.27,1.27,0,0,1,.27.25.25.25,0,0,1,0,.22c0,.16-.3.19-.44.19h-.13L64,14a.76.76,0,0,1-.21,0c-.07,0-.16-.08-.16-.16a.19.19,0,0,1,.12-.16l.07,0s0,0,0-.06-.32-.09-.41-.11a.41.41,0,0,1-.2-.12.21.21,0,0,1-.07-.14.74.74,0,0,1,.34-.61m3.3-.75.2,0a.37.37,0,0,0,.15,0,.21.21,0,0,0,.09-.15.34.34,0,0,0,0-.1h0l0-.12a.41.41,0,0,1,.14-.2.49.49,0,0,1,.51,0,1.36,1.36,0,0,1,.6.54,1.21,1.21,0,0,1,.22.58,1,1,0,0,1,0,.51A.41.41,0,0,1,68,12.5a.78.78,0,0,0,0-.26s0-.1,0-.11-.27.42-.31.49c-.14.23-.31,0-.4-.14a.76.76,0,0,0-.17-.23.18.18,0,0,0-.08-.07s0,0,0,0,0,.14,0,.17a.78.78,0,0,1,0,.14c.07.21.25.66,0,.79a.35.35,0,0,1-.39,0,.37.37,0,0,1-.15-.32v0c.09-.21-.11-.34-.15-.53-.08-.37.15-.51.48-.55m2.22-.92a.2.2,0,0,1,.15,0,.43.43,0,0,1,.23.36.36.36,0,0,1-.24.45h0a.41.41,0,0,1-.43-.29.4.4,0,0,1,0-.3.46.46,0,0,1,.26-.21m.57,1.29a2.53,2.53,0,0,1,.2-.82,1,1,0,0,1,.41-.46.72.72,0,0,1,.64,0,.73.73,0,0,1,.25.72,1.27,1.27,0,0,0,0,.2.19.19,0,0,0,0,.1.38.38,0,0,0,.1,0l.18,0a.41.41,0,0,1,.19.2.66.66,0,0,1-.07.56,2,2,0,0,1-.53.58l-.15.14a1.59,1.59,0,0,0-.18.27c0,.09-.15.26-.25.27a.19.19,0,0,1-.2-.12.9.9,0,0,1,.09-.66,1.42,1.42,0,0,1,.46-.54l.11-.08a.09.09,0,0,0,0-.11c-.08-.1-.39.15-.46.2s-.08.06-.1,0a3,3,0,0,1,0-.49,1.45,1.45,0,0,0,0-.36s0-.11-.06-.11-.06.1-.07.13A10.08,10.08,0,0,1,70,13.17l0,.12a.28.28,0,0,1-.22.19.35.35,0,0,1-.32-.17.65.65,0,0,1-.11-.47c0-.1,0-.25.16-.28s.2-.26.21-.41m2.3,1.79a1.83,1.83,0,0,0,.16-.13.54.54,0,0,1,.58-.18l.21.12a.64.64,0,0,1,.17.71c0,.09-.08.18-.12.27s-.1.25,0,.41a.26.26,0,0,1,.09.16.71.71,0,0,1-.69.79h-.27a.66.66,0,0,0-.28.05,2,2,0,0,0-.25.14,1.28,1.28,0,0,1-.46.21.78.78,0,0,1-.4,0,.27.27,0,0,1-.2-.16c-.06-.15.1-.31.22-.4l0,0,0,0a2.6,2.6,0,0,1,1.33-.3s.19,0,.18-.07,0,0,0-.05l-.11,0a1.77,1.77,0,0,0-.4-.08c-.13,0-.13,0,0-.12L72,15a1.73,1.73,0,0,0,.23-.24l.07-.11c.13-.22.07-.31-.16-.08l-.29.25a1.24,1.24,0,0,1-.22.18l-.26.16c-.1.06-.32.15-.37,0a1.4,1.4,0,0,1,.06-.7,1.29,1.29,0,0,1,.31-.56.27.27,0,0,1,.26-.06.39.39,0,0,1,.11.06s.11.08.16.06M72,12.49a.74.74,0,0,1,.2-.23.75.75,0,0,1,.41-.14,1.06,1.06,0,0,1,.43.08.87.87,0,0,1,.52.63.5.5,0,0,1,0,.36.22.22,0,0,1-.05.08.54.54,0,0,1-.38.19.52.52,0,0,1-.26-.08c-.16-.1-.11-.23-.08-.4s0-.12,0-.13-.13.06-.2.13-.2.23-.37.2A.38.38,0,0,1,72,13.1c-.2-.18-.11-.41,0-.61m2.11.33a.67.67,0,0,1,.34-.16.68.68,0,0,1,.66.2.9.9,0,0,1,.13,1c-.05.15,0,.26.16.29s.16.12.16.27c0,.57-.44.85-.89,1a1.73,1.73,0,0,0-.55.36.34.34,0,0,1-.15.07.28.28,0,0,1-.25,0,.42.42,0,0,1-.15-.37.54.54,0,0,1,.47-.45l.21,0a1.66,1.66,0,0,0,.62-.17c.14-.08,0-.14-.1-.12s-.4.09-.48,0,0-.14,0-.25a2.46,2.46,0,0,0,.14-.26c0-.08.07-.16.09-.23s.11-.3,0-.4,0,0-.06,0a1.15,1.15,0,0,0-.13.21c0,.07-.09.18-.15.29-.21.37-.56.56-.56,0a1.73,1.73,0,0,1,.43-1.27m2.13,2.24a.53.53,0,0,1,.15.11.46.46,0,0,0,.07.07c.07,0,.2-.08.25-.12a.67.67,0,0,1,.92.17.59.59,0,0,1,.12.69c0,.06-.06.1,0,.16s.1.12.14.18a.41.41,0,0,1,0,.52.78.78,0,0,1-.91,0c-.27-.14-.49-.32-.36-.55s.35-.24.49-.39,0-.17-.3,0l-.22.12-.24.18s-.09.07-.12,0,0,0,0-.07,0-.07,0-.1,0-.11,0-.16,0-.3-.09-.31,0,0,0,.07a2.71,2.71,0,0,1-.16.51.49.49,0,0,1-.51.34.18.18,0,0,1-.1,0c-.11-.11-.06-.35,0-.48a2,2,0,0,1,.14-.41c.12-.28.55-.68.88-.51M78,17.48a.38.38,0,0,0,.15,0,.37.37,0,0,0,.26-.16l.14-.15A.48.48,0,0,1,78.8,17a.38.38,0,0,1,.33.14.59.59,0,0,1,.13.46.57.57,0,0,0,0,.13.27.27,0,0,0,.08.19.41.41,0,0,0,.11.07.37.37,0,0,1,.23.5,1.05,1.05,0,0,1-.2.34c-.07.08-.16.14-.23.22a.71.71,0,0,0-.12.18.39.39,0,0,0,0,.18.55.55,0,0,1-.2.47.82.82,0,0,1-.28.14,1.92,1.92,0,0,0-.43.17l-.05,0c-.09,0-.25.13-.34,0s0,0,0,0,0-.16.06-.21l.06-.09a2.67,2.67,0,0,1,.46-.49c.14-.13.29-.25.42-.38l.12-.13c.16-.18.14-.32-.09-.13l-.08.07-.14.1c-.11.07-.25.15-.12-.16,0-.06.16-.39.26-.68s0-.59-.17-.1c-.08.24-.25.71-.35.69h0a.79.79,0,0,1-.09-.23,1,1,0,0,0-.13-.3c-.14-.21-.25-.14-.14.12a1.62,1.62,0,0,1-.31,1.77.2.2,0,0,1-.18.09A.18.18,0,0,1,77.2,20a.63.63,0,0,1,.08-.4,1.21,1.21,0,0,0,.11-.65c0-.19-.07-.37-.1-.55,0-.42.16-1.05.67-.93m2.45,3.82a.69.69,0,0,1,.2.45.63.63,0,0,1-.33.52,1.34,1.34,0,0,1-.55.16c-.08,0-.27,0-.31.1a.22.22,0,0,0,0,.14c0,.2-.19.29-.34.32a1.81,1.81,0,0,1-1.23-.41c-.06-.06-.12-.12-.08-.21s.2-.12.31-.1.37.14.56.18.13,0,.14,0-.42-.29-.48-.32-.18-.13-.09-.22a1.23,1.23,0,0,1,.52-.14,4.49,4.49,0,0,1,1.1,0h0c.17,0,.13-.08,0-.13a2.38,2.38,0,0,0-1-.08h0c-.07-.08.16-.32.2-.41s0-.05,0-.06,0,0-.07,0-.29.29-.38.36a2.14,2.14,0,0,1-.65.35c-1.07.44-1.09-.24-.12-.53a1.11,1.11,0,0,0,.19-.09.86.86,0,0,0,.2-.18,2.16,2.16,0,0,1,.25-.27,1,1,0,0,1,.61-.28.58.58,0,0,1,.48.19.31.31,0,0,1,0,.31c0,.06.07.09.11.1l.2.05a1,1,0,0,1,.53.29m-.1-2.51a.36.36,0,0,1,0,.44c-.15.26-.53.33-.65,0a.29.29,0,0,1,0-.24.43.43,0,0,1,.22-.2.42.42,0,0,1,.39,0m1.29.55a.62.62,0,0,1,.19.56c0,.5.07.31.44.59a.66.66,0,0,1,.18.87.74.74,0,0,1-.16.2.84.84,0,0,1-.67.21.93.93,0,0,1-.69-.46l0-.07c0-.08-.11-.23,0-.27a1,1,0,0,1,.65.14s.22.14.22,0a.28.28,0,0,0-.12-.18,1.51,1.51,0,0,0-.68-.31c-.07,0-.28-.08-.29-.16s.06-.09.1-.11l.06,0c.09-.06.52-.29.44-.44s-.07,0-.09,0l-.23.1-.33.14-.14.05c-.18.06-.43.1-.53-.11s0-.19.06-.27l0-.06.1-.09c.34-.28,1.08-.71,1.47-.33m1.78,1.12a1,1,0,0,1,.08.54,1.42,1.42,0,0,1,0,.22.53.53,0,0,1-.16.28c-.32.29-.5,0-.5-.32,0-.14,0-.27.1-.29l.17,0c.17,0,.11-.07,0-.13a2.65,2.65,0,0,1-.5-.32.44.44,0,0,1-.09-.11.31.31,0,0,1-.07-.21.23.23,0,0,1,.26-.23.82.82,0,0,1,.74.55M78.3,24a.39.39,0,0,1,.58-.52.22.22,0,0,1,.08.13.42.42,0,0,1-.17.37.34.34,0,0,1-.48,0Zm-.74,3.33.07,0c.44.1.79.55.44.93a.84.84,0,0,1-.47.23h-.19a1,1,0,0,1-.24,0l-.26-.06a.85.85,0,0,0-.23,0c-.11,0-.15.08-.2.16s-.33.07-.45,0a1.16,1.16,0,0,1-.49-.32c-.12-.16,0-.23.16-.27a3.22,3.22,0,0,1,.75-.1,2.36,2.36,0,0,1,.7.09l0,0,.07,0h.06c.11,0,.1-.08,0-.14a1,1,0,0,0-.44-.15l-.11,0c-.1,0-.13-.05-.09-.11s.24-.24.24-.29,0-.07-.11,0l-.19.12a1.1,1.1,0,0,1-.52.22c-.11,0-.15,0-.11-.11s.2-.33.12-.39-.05,0-.11.08a1.27,1.27,0,0,1-.4.43.26.26,0,0,1-.29,0c-.06,0-.07-.1,0-.2.13-.29.47-.8.85-.79.23,0,.21.13.26.14l.07,0c.1,0,.21-.06.45-.1a.53.53,0,0,1,.41.08.3.3,0,0,1,.12.21v.16a.11.11,0,0,0,0,.08s0,0,.07.05m-4.33-2.84-.09,0-.16-.1a.21.21,0,0,0-.1,0,.24.24,0,0,0-.09,0,1.55,1.55,0,0,1-.81.35.65.65,0,0,1-.64-.45.49.49,0,0,1,.06-.41.93.93,0,0,1,.16-.18s.17-.11.17-.17a.13.13,0,0,0,0-.08l-.07-.09a.54.54,0,0,1-.07-.13.52.52,0,0,1,0-.18.34.34,0,0,1,.34-.31l.19,0c.35.07.45.23.82.08.18-.08.41-.17.58,0a.21.21,0,0,1,0,.33c-.28.23-.82.17-1.18.16,0,0-.22,0-.22.05s0,0,.06,0l.11,0a3.82,3.82,0,0,1,.42.09s0,.06,0,.08l-.06.05-.19.16c-.09.09-.25.21-.28.34a.06.06,0,0,0,0,0c0,.06.19,0,.22-.08a4.16,4.16,0,0,1,.39-.32,3.21,3.21,0,0,1,.45-.24.23.23,0,0,1,.21,0c.08.06,0,.27,0,.36s0,.27.09.28.07-.07.08-.1a.88.88,0,0,0,0-.17,2.2,2.2,0,0,1,.15-.6c0-.07.13-.28.24-.25s.15.37.15.48a1.56,1.56,0,0,1-.19.76.76.76,0,0,0-.08.11.58.58,0,0,1-.15.11.48.48,0,0,1-.48,0m-1.71-5.74a.35.35,0,0,1,.42,0,.42.42,0,0,1,0,.38.4.4,0,0,1-.15.19.29.29,0,0,1-.24,0c-.32-.09-.27-.44,0-.59m3,4.31c.08-.2.41-.1.57-.06.5.11.63.18.85.53,0,.06.21.38.26.37s-.06-.34-.08-.42,0-.16,0-.19.15,0,.19,0l.4.16s.39.18.42.1-.28-.21-.32-.23l-.24-.12-.07,0c-.08,0-.14-.09,0-.16l.14-.08s.22-.14.2-.19-.21.05-.25.07a1,1,0,0,1-.58.15.86.86,0,0,1-.23-.06c-.1,0-.13-.08,0-.18a1.73,1.73,0,0,0,.14-.2c.07-.1.13-.21.1-.23s-.21.14-.26.18a1.92,1.92,0,0,1-.22.18.91.91,0,0,1-.54.11.34.34,0,0,1-.14,0c-.07,0-.12,0-.11-.13s.24-.23.34-.28l.22-.12c.28-.18.56-.47.91-.24a.81.81,0,0,1,.19.18.39.39,0,0,0,.29.16c.18,0,.53,0,.66.13a.51.51,0,0,1,.08.4c0,.06,0,.11.09.15l.15.15a.75.75,0,0,1,.24.41.67.67,0,0,1-.28.64.63.63,0,0,1-.58,0l-.13,0a.23.23,0,0,0-.28.08.45.45,0,0,1-.6.07.71.71,0,0,1-.14-.1,1.18,1.18,0,0,1-.3-.33,1.57,1.57,0,0,0-.31-.32l-.26-.12-.25-.11c-.09,0-.28-.17-.22-.3m.19-2.53a.43.43,0,0,0,.08-.24.51.51,0,0,1,.39-.37.3.3,0,0,1,.16,0,.6.6,0,0,1,.19.06l.1.05a.2.2,0,0,0,.15,0l.11,0a.83.83,0,0,1,.93,0,.36.36,0,0,1,.13.23.48.48,0,0,1-.2.48l-.06.05c-.15.17,0,.19.09.33a.29.29,0,0,1,0,.16.4.4,0,0,1-.46.26l-.36-.06c-.32,0-.6.17-.68.05a.16.16,0,0,1,0-.16A2.25,2.25,0,0,1,76,20.7s.13-.12.1-.16,0,0,0,0a1.75,1.75,0,0,0-.73.37l-.07,0c-.16.11,0-.38-.07-.47s0,0,0,0-.09.14-.1.17a1.6,1.6,0,0,0,0,.21c-.07.3-.08.67-.37.86a.32.32,0,0,1-.2.07.21.21,0,0,1-.14,0,.27.27,0,0,1-.12-.22,1.09,1.09,0,0,1,.38-.8l.08-.11m-.35,1.66a.34.34,0,0,1-.21.37c-.27.12-.6,0-.52-.36a.29.29,0,0,1,.13-.2A.42.42,0,0,1,74,22c.11,0,.28.1.31.22m-.74-1.81s-.1,0-.12.07a3.81,3.81,0,0,0-.3.36S73.07,21,73,21s0-.23,0-.27c0-.28,0-.47,0-.75s0-.4-.11-.4-.06.11-.08.42a.71.71,0,0,0,0,.14c0,.09,0,.18,0,.27a1.57,1.57,0,0,1,0,.3s0,.14-.07.13-.11-.1-.14-.13a.86.86,0,0,0-.32-.31s-.09,0-.11,0,.06.17.09.2l.14.15a1.32,1.32,0,0,1,.25.86,1.09,1.09,0,0,0,0,.18l0,.16a.45.45,0,0,1-.13.23.19.19,0,0,1-.18.06c-.15,0-.16-.26-.15-.38a1.1,1.1,0,0,1,0-.18.92.92,0,0,0-.19-.68l-.09-.12c-.25-.33-.55-1,.07-1.15a.4.4,0,0,1,.15,0h.14c.1,0,.16-.11.2-.19s.07-.18.12-.26a.57.57,0,0,1,.43-.29.46.46,0,0,1,.46.39l0,.12a.22.22,0,0,0,.14.13.34.34,0,0,0,.14,0l.16,0c.31.16.22.65.07.89a1.1,1.1,0,0,0-.23.44.69.69,0,0,0,0,.25c.1.41-.4.6-.62.87a.55.55,0,0,1-.19.15.16.16,0,0,1-.15,0c-.08-.05,0-.17,0-.24l0-.1a2.53,2.53,0,0,1,.35-.62,4.49,4.49,0,0,0,.38-.62s.09-.19,0-.21m2.61-1.61a.87.87,0,0,0-.21-.17l-.2-.14s0,0,0-.06.08-.09.11-.11a1.3,1.3,0,0,0,.31-.26s.18-.19.15-.24-.2,0-.24.07a2.11,2.11,0,0,1-.31.21c-.15.08-.29.12-.43,0s-.09-.52,0-.7.35-.65.6-.4c.06.07.11.18.2.2a.29.29,0,0,0,.16,0,.83.83,0,0,1,.31,0c.16,0,.27.18.36.32s.14.6-.07.74a.6.6,0,0,0-.16.16c-.11.2,0,.26.06.45a.38.38,0,0,1,0,.1.5.5,0,0,1-.59.41c-.15,0-.29,0-.43,0s-.39.53-1.28.09c-.07,0-.25-.14-.23-.25s.15-.12.23-.13a1.31,1.31,0,0,1,.43.08l.08,0s.1,0,.12,0a.14.14,0,0,0,0-.09.32.32,0,0,0-.1-.1l-.14-.1c-.08-.07,0-.11,0-.13a1.77,1.77,0,0,1,1.22.22s.08,0,.09,0a.06.06,0,0,0,0-.06m-2.05-2.13a1,1,0,0,1,.38.06.62.62,0,0,1,.38.59.51.51,0,0,1-.27.38.61.61,0,0,0-.14.07l-.1,0c-.22.13,0,.21,0,.34a.09.09,0,0,1,0,.06.2.2,0,0,1,0,.15c-.07.25-.5.36-.73.34a2.21,2.21,0,0,1-.57-.17,1.86,1.86,0,0,0-.46-.13h-.32a1,1,0,0,1-.42,0c-.06,0-.08-.09,0-.15a.68.68,0,0,1,.27-.21,1.59,1.59,0,0,1,.38-.07,1.94,1.94,0,0,1,.75.12,2.12,2.12,0,0,1,.2.12s.17.1.21.06,0-.07,0-.09l0,0a1.13,1.13,0,0,0-.42-.29.54.54,0,0,1-.18-.11h0c0-.07.2-.14.25-.15a2.34,2.34,0,0,1,.38-.09l.34-.05s.1,0,.1-.06-.09-.05-.12-.06a1.83,1.83,0,0,0-1,.13,1.52,1.52,0,0,1-.2.06.26.26,0,0,1-.12,0c-.07,0,0-.13,0-.16a1.88,1.88,0,0,1,.35-.34s.1-.09.08-.14a.1.1,0,0,0-.07,0,.35.35,0,0,0-.14.06,2.63,2.63,0,0,0-.5.44,3.2,3.2,0,0,1-.25.27,1.57,1.57,0,0,1-.26.19.58.58,0,0,1-.31.11c-.16,0-.22-.13-.24-.27-.06-.38.76-1.18,1-.89a.1.1,0,0,0,0,0h0l.09,0a.26.26,0,0,0,.11-.07,1.74,1.74,0,0,1,.86-.51.37.37,0,0,1,.33.12.28.28,0,0,1,0,.25c0,.12.14.14.21.13m-6.67,4.19-.3,0H67.1s-.18,0-.2,0,.12-.2.17-.23a1.75,1.75,0,0,1,.29-.18c.14-.07.29-.12.43-.18s.2-.08.19-.14-.16-.06-.2-.06a2.83,2.83,0,0,1-.44.11s0,0,0,0a1.31,1.31,0,0,0,0-.34c0-.05,0-.09-.08-.09s0,0,0,.08a1.13,1.13,0,0,1-.36.71,2.34,2.34,0,0,0-.32.31c-.13.16-.25.34-.39.5s-.12.11-.17.1c-.24-.05-.09-.78,0-.93s.11-.21.22-.22l.15,0h0a.16.16,0,0,0,.15,0,.88.88,0,0,0,.18-.29c0-.1.07-.19.1-.29a.64.64,0,0,1,.35-.39.43.43,0,0,1,.46,0,1.36,1.36,0,0,1,.12.12.34.34,0,0,0,.08.09.35.35,0,0,0,.14,0,2.64,2.64,0,0,1,.28,0,.51.51,0,0,1,.3.19.42.42,0,0,1,.1.17.61.61,0,0,1-.26.69c-.12.09-.28.23-.26.39a.52.52,0,0,0,.06.16c.12.31-.2.47-.48.39a1.56,1.56,0,0,0-.42-.08,2.24,2.24,0,0,0-.44.07.31.31,0,0,1-.23-.06.16.16,0,0,1,0-.2,1.06,1.06,0,0,1,.61-.22l.22,0s.13,0,.13-.08-.12-.07-.16-.07m-2,2a.44.44,0,0,1,.45.36.44.44,0,0,1-.34.48.32.32,0,0,1-.17,0,.45.45,0,0,1-.22-.38.38.38,0,0,1,.28-.45Zm-.84-.25a2.12,2.12,0,0,1,0-.37A2,2,0,0,1,65,21s.11-.2.07-.23-.16.11-.19.14a3.82,3.82,0,0,0-.37.58l0,0s-.09-.16-.1-.19A10.07,10.07,0,0,1,64.26,20s0-.08,0-.08-.07.05-.09.13a3.21,3.21,0,0,0,0,.76s0,.16,0,.17,0,0-.07,0l-.24-.2a1.08,1.08,0,0,0-.29-.18.08.08,0,0,0-.08,0c0,.06.15.22.19.25a2.27,2.27,0,0,1,.74,1.39,2.71,2.71,0,0,1,.09.41c0,.09,0,.16-.12.17-.37,0-1-.55-.9-.86s.26-.31.14-.53a1.7,1.7,0,0,0-.15-.22l-.18-.29a2.26,2.26,0,0,1-.11-.22.39.39,0,0,1,.08-.47c.2-.15.32.09.39-.23a.19.19,0,0,1,0-.08c.22-.69.6-.79.9-.57a.91.91,0,0,1,.36.51c0,.1.11.2.23.17s.42,0,.41.33a1.9,1.9,0,0,1-.14.57c0,.11-.1.23-.07.3s0,.06.08.08a.31.31,0,0,1,.21.22.59.59,0,0,1,0,.35c-.08.2-.29.31-.4.51a1.56,1.56,0,0,0-.11.26c-.1.26-.31.54-.39,0m-3.72-.16a.4.4,0,0,1-.67-.32.38.38,0,0,1,.17-.39.42.42,0,0,1,.44.14.48.48,0,0,1,.07.56h0Zm1.67-2.54a.93.93,0,0,1,0,.37,2.91,2.91,0,0,0,0,.3.62.62,0,0,0,.06.26l.06.1c0,.05,0,.1.07.16a.46.46,0,0,1,0,.2.17.17,0,0,1-.12.17.33.33,0,0,1-.37-.22,2.52,2.52,0,0,1-.15-.34,1.33,1.33,0,0,1,0-.28c0-.11,0-.22,0-.33s0-.08,0-.08-.08.11-.09.14,0,.25-.1.28-.13,0-.16-.07l-.08-.07-.17-.09s-.17-.08-.2,0,.11.16.13.18a3.8,3.8,0,0,1,.83,1.09c0,.09,0,.1-.12.1l-.29,0s-.11,0-.12.06.16.08.2.08a2.52,2.52,0,0,1,.54.14l.12.06c.17.1.23.22,0,.31a.94.94,0,0,1-.55,0,1.33,1.33,0,0,1-.56-.3c-.09-.09-.22-.25-.18-.39l0-.05c.06-.08.15-.19.13-.29s-.08-.11-.14-.13a.81.81,0,0,1-.48-.28,1,1,0,0,1,.1-1,.79.79,0,0,1,.33-.37.32.32,0,0,1,.3,0c.07,0,.1.09.16.13a.31.31,0,0,0,.32,0,.3.3,0,0,1,.46.21m2.34-1.38a.42.42,0,0,1-.36.18c-.16,0-.32,0-.36-.2s0-.24-.09-.25-.19.18-.22.22-.32.56-.53.6-.14-.22-.17-.34-.12,0-.14.07,0,.07,0,.09-.19.22-.32.16-.14-.19-.13-.3a1.36,1.36,0,0,1,.24-.55,1,1,0,0,1,.36-.32c.06,0,.14-.05.2,0s0,0,0,.05.21,0,.29-.07a.74.74,0,0,1,1-.1.59.59,0,0,1,.17.75m.42-3a.64.64,0,0,1-.39.43l-.1,0c-.1.05-.2.11-.19.25a.56.56,0,0,0,.07.16.28.28,0,0,1,0,.25c-.08.34-.36.37-.65.44l-.42.11a.74.74,0,0,1-.29.08.21.21,0,0,1-.16-.1c-.05-.11,0-.22.11-.29a2.48,2.48,0,0,1,.61-.23s.26-.11.25-.17-.2,0-.23,0-.27.07-.41.09-.12,0-.14,0,.06-.16.08-.19a4.57,4.57,0,0,1,.85-1s.27-.24.24-.29-.09,0-.11,0a2.5,2.5,0,0,0-.67.5l-.09.08s0,0,0,0,0-.16,0-.2a2.81,2.81,0,0,0,0-.29s0-.07,0-.07-.09.16-.1.19a4.86,4.86,0,0,1-.18.77,5.77,5.77,0,0,1-.56.88c-.08.07-.16.09-.23,0a1.16,1.16,0,0,1,0-.64,1.23,1.23,0,0,1,.35-.59.66.66,0,0,0,.18-.41,2.44,2.44,0,0,1,0-.27.81.81,0,0,1,.09-.29.82.82,0,0,1,.25-.24.46.46,0,0,1,.5,0,.34.34,0,0,1,.13.2c0,.06.1,0,.14,0l.18-.08a.61.61,0,0,1,1,.37.88.88,0,0,1,0,.48m.28,1.38a.35.35,0,0,1,0,.41c-.16.2-.52.24-.58-.08a.28.28,0,0,1,0-.22.45.45,0,0,1,.59-.11M67.16,16c-.08.13-.32.1-.44.07a.89.89,0,0,1-.31-.15s-.17-.15-.23-.09,0,.19.07.23a.26.26,0,0,1,0,.24.36.36,0,0,1-.36.21.32.32,0,0,1-.21-.1c-.22-.24.12-1.12.3-1.34s.37-.13.56,0a2.43,2.43,0,0,1,.25.2c.18.16.52.48.35.73m1,2.09a.35.35,0,0,1,.08.13.76.76,0,0,1,0,.15.57.57,0,0,1-.11.22.94.94,0,0,1-.76.25h-.06a.77.77,0,0,0-.56.06.86.86,0,0,0-.2.18.63.63,0,0,1-.33.2h-.07a.12.12,0,0,1-.15-.11.58.58,0,0,1,.2-.41,1.07,1.07,0,0,1,.88-.35h.16s.15,0,.15-.05-.06,0-.07,0a1.5,1.5,0,0,0-.37-.05s-.09,0-.1,0,0-.11.07-.14a2,2,0,0,1,.25-.25,1.84,1.84,0,0,1,.22-.17l.14-.12s.14-.12.11-.15-.27.07-.31.09l-.05,0-.39.28-.07.05s-.08.08-.11.06,0-.05,0-.06a.44.44,0,0,0,0-.1,1.41,1.41,0,0,1,.06-.22s.08-.21,0-.23-.06,0-.07,0a.52.52,0,0,0-.1.11l0,.07c-.06.15-.13.3-.2.45l-.15.32c-.07.12-.14.22-.21.33l-.11.16c0,.06-.22.33-.31.2a2,2,0,0,1,.07-1.14.54.54,0,0,1,.36-.33,1,1,0,0,0,.13-.09c.16-.15.18-.36.29-.54a.52.52,0,0,1,.37-.24.45.45,0,0,1,.37.09l.09.09a.26.26,0,0,0,.19,0l.11,0a.51.51,0,0,1,.5.08.49.49,0,0,1,.11.56,1.34,1.34,0,0,1-.13.23.29.29,0,0,0,0,.4m2.1-3A.29.29,0,0,1,70,15a.36.36,0,0,1,0-.27c0-.11.13-.29.26-.31a.36.36,0,0,1,.35.28.41.41,0,0,1-.13.46.3.3,0,0,1-.29,0m-1.3,3.34a1.89,1.89,0,0,1-.28-.5.34.34,0,0,1,.34-.42c.14,0,.17,0,.2-.15a1.68,1.68,0,0,1,.17-.41c.31-.49.83-.48,1,.2,0,.05,0,.09,0,.14s.14.17.22.16c.41-.07.6.3.59.71s-.28.64-.36,1a1.34,1.34,0,0,0,0,.56.34.34,0,0,1,0,.22.3.3,0,0,1-.08.08c-.27.14-.51-.39-.55-.59a1,1,0,0,1,0-.57,3,3,0,0,1,.27-.42s.09-.13.06-.15-.3.17-.34.2-.12.11-.17.1a.18.18,0,0,1,0-.08,3.83,3.83,0,0,1-.08-.89v-.11a.07.07,0,0,0-.07-.08s-.07.09-.07.13a1.84,1.84,0,0,0,0,.41v.24a.13.13,0,0,1,0,.09c-.08.06-.49-.37-.54-.25s.08.14.1.15a.52.52,0,0,0,.11.1,1.34,1.34,0,0,1,.43.54,1.18,1.18,0,0,1,.08.39s0,0-.07,0l-.12-.05a1.37,1.37,0,0,0-.4-.09s-.08,0-.09,0,.06.05.07.06l0,0a4.59,4.59,0,0,1,.49.26.92.92,0,0,1,.29.3c0,.07.1.2,0,.27a.17.17,0,0,1-.12,0,1.63,1.63,0,0,1-.65-.31,1.52,1.52,0,0,1-.46-.45.77.77,0,0,1-.07-.16c0-.13-.06-.28.07-.37a.18.18,0,0,0,.07,0c.1-.1,0-.19,0-.28Zm-.13-3.85a.32.32,0,0,1,0,.14c0,.05,0,.07-.09,0a2,2,0,0,1-.24-.26,1.9,1.9,0,0,0-.19-.21c0-.05-.28-.26-.34-.2h0s.09.2.12.23.25.28.36.42l.13.18.06.07s.06.08,0,.11-.17,0-.2-.05a1,1,0,0,0-.56-.12s0,0,0,0,.12.09.15.1a1.89,1.89,0,0,1,1.17,1,1.49,1.49,0,0,1,.09.3.2.2,0,0,1-.06.22.14.14,0,0,1-.14,0,.38.38,0,0,1-.18-.12.86.86,0,0,1-.13-.14.53.53,0,0,0-.28-.18l-.09,0c-.17,0-.42-.16-.4-.37a.32.32,0,0,0-.06-.27.38.38,0,0,0-.16-.06l-.23-.06a.62.62,0,0,1-.32-.21.41.41,0,0,1,.21-.56s.07,0,.08-.06-.08-.29-.16-.4a.44.44,0,0,1-.06-.51.76.76,0,0,1,.11-.14.6.6,0,0,1,.78,0l.18.13s.18.13.25.09a.72.72,0,0,1,.23-.12.49.49,0,0,1,.26.1,1,1,0,0,1,.39.5,1.57,1.57,0,0,1,.06.53.68.68,0,0,0,0,.29l0,0,.09.06c.16.1.18.36.16.53a.84.84,0,0,1-.16.42.21.21,0,0,1-.15.09c-.12,0-.18-.15-.21-.24-.1-.3-.23-.59-.3-.9a2.87,2.87,0,0,1,0-.41c0-.05,0-.26-.11-.25s-.08.18-.08.23M59.16,26.71a.28.28,0,0,0,.13.19c.14.08.93-.38.37-.71s-.55.18-.5.52M57.55,20.2c.15-.26.36-.27.54,0a.42.42,0,0,1,0,.5.3.3,0,0,1-.3.06l0,0a.39.39,0,0,1-.16-.51M53.94,27a.2.2,0,0,1,.09-.21l.07-.05a.72.72,0,0,1,.46,0,.81.81,0,0,1,.33.11c.06,0,.17.12.19.21a.36.36,0,0,1-.23.37l-.31.14s-.22.08-.21.13.21,0,.25,0a1.57,1.57,0,0,0,.35-.11s.11-.06.14,0,0,0,0,0v.22a.58.58,0,0,0,0,.23l0,0s0-.05.05-.07a2.09,2.09,0,0,1,.3-.89c.11-.14.27-.25.29,0v0c0,.53.16.11.19,0s0,0,0,0l.07-.16a.55.55,0,0,1,.19-.25c.11-.08.22-.1.23.07a1.5,1.5,0,0,1-.28.87.55.55,0,0,1-.32.19.28.28,0,0,0-.2.15c-.07.11-.06.26-.12.38a.45.45,0,0,1-.22.23.38.38,0,0,1-.38-.08l-.12-.09c-.17-.15-.26-.2-.48-.11s-.5-.11-.59-.29a.49.49,0,0,1-.06-.42.61.61,0,0,1,.19-.2.5.5,0,0,0,.08-.12c0-.07,0-.16,0-.23m3.53-2a1.24,1.24,0,0,1,.05.5c0,.08-.16,0-.19-.05a2.36,2.36,0,0,1-.45-.55s-.16-.25-.21-.22,0,.16,0,.2a.3.3,0,0,0,0,.08,2.64,2.64,0,0,0,1.1,1.19c.23.12.06.21-.08.29l0,0a1,1,0,0,0-.23.19s0,0,0,.06.14,0,.16-.05c.22-.1.75-.29,1-.16s.08.32,0,.44a1.36,1.36,0,0,1-1,.12.7.7,0,0,1-.19-.06A.5.5,0,0,1,57,26.7c0-.13,0-.29,0-.42a.38.38,0,0,0-.15-.18c-.15-.11-.38-.11-.55-.19s-.31-.19-.21-.38,0-.08.09-.1.22-.2.08-.32A1.45,1.45,0,0,1,56,25c-.16-.18-.26-.26-.21-.52a.79.79,0,0,1,.58-.6.61.61,0,0,1,.3,0A.41.41,0,0,1,57,24a.91.91,0,0,0,.18.21.12.12,0,0,0,.11,0l.12-.05a.33.33,0,0,1,.13-.07h.09c.11,0,.21.11.28.19a2.21,2.21,0,0,1,.36.83,1,1,0,0,0,.25.49l.07.05c.13.1.25.14.34.3a.24.24,0,0,1,0,.2c-.06.12-.26.09-.36.07l-.1,0A1.42,1.42,0,0,1,58,26a.56.56,0,0,1-.25-.35,2.06,2.06,0,0,1,0-.26,1.37,1.37,0,0,0-.08-.35s-.08-.2-.13-.18,0,.12,0,.15m1.65-1.07S59.06,24,59,24s-.07-.13-.07-.16a.77.77,0,0,1,0-.15A5.15,5.15,0,0,1,59,22.4s0-.08,0-.08-.09.07-.1.1a2.31,2.31,0,0,0-.18.72s0,0,0,0-.21-.2-.3-.25,0,0,0,0,0,.15,0,.17.12.18.17.27a.61.61,0,0,1,.11.29c0,.11,0,.19,0,.29s.08.27.11.4,0,.25-.06.3h-.1c-.29-.05-.47-.51-.48-.84a.62.62,0,0,0-.1-.35c-.14-.17-.48-.86-.07-1.08,0,0,.13,0,.24,0s.15-.22.16-.29a.5.5,0,0,1,.23-.4.94.94,0,0,1,.44-.13,1,1,0,0,1,.38.1.69.69,0,0,1,.29.36.64.64,0,0,1,0,.57c-.07.12-.17.29,0,.39a.25.25,0,0,0,.12,0,.33.33,0,0,1,.22.13.39.39,0,0,1,0,.39s0,.09-.08.15-.09.21-.14.31a2.48,2.48,0,0,0-.29,1c0,.28-.23.4-.35.23a1,1,0,0,1-.07-.39,2.1,2.1,0,0,1,.34-1.16c0-.06.15-.18.12-.22s0,0-.15.07a2.44,2.44,0,0,0-.3.36m2.21,2.69a.44.44,0,0,0,.29.14.4.4,0,0,0,.28-.07.31.31,0,0,0,.05-.33c-.09-.31-.37-.25-.6-.11s-.17.21,0,.37m-.49-1.78a1.38,1.38,0,0,1-.14.24,2,2,0,0,1-.63.7.19.19,0,0,1-.19,0c-.08-.06-.08-.19-.07-.28a1,1,0,0,1,.14-.4,1,1,0,0,1,.16-.2.62.62,0,0,0,.14-.14.51.51,0,0,0,.12-.36c0-.11,0-.23,0-.35a1.13,1.13,0,0,1,.26-.74c.14-.16.48-.28.65-.13a.19.19,0,0,0,.1.05.55.55,0,0,0,.41-.16.5.5,0,0,1,.51-.1c.28.11.52.51.3.78s0,.35.12.54a.28.28,0,0,1,.06.16c0,.21-.22.37-.39.44s-.32.07-.27.33a.41.41,0,0,1-.12.34.53.53,0,0,1-.2.13.9.9,0,0,1-.23.08l-.19,0-.15,0a.86.86,0,0,0-.21.07,1.14,1.14,0,0,1-.54.2.14.14,0,0,1-.15-.1.26.26,0,0,1,.1-.23,1.7,1.7,0,0,1,.29-.23,2.26,2.26,0,0,1,.81-.21s.14,0,.13-.09-.37-.08-.46-.07-.14-.11,0-.28a7,7,0,0,0,.71-1c.05-.08.07-.16,0-.19s-.13.08-.15.1-.37.44-.5.6-.14.06-.13-.06a3,3,0,0,0,0-.52s0-.16-.08-.16-.06.15-.06.18a2.51,2.51,0,0,1-.15.94m3.62,3.13s-.19,0-.22.06,0,0,0,0a.13.13,0,0,0,0,.06c0,.22-.13.35-.35.28a2,2,0,0,1-.38-.27h0c-.07-.08-.14-.12-.22,0l-.05.06c-.07.11-.19.09-.3,0a.24.24,0,0,1-.12-.07,1.08,1.08,0,0,1-.33-.43,1.66,1.66,0,0,1-.21-.6.26.26,0,0,1,.05-.12.18.18,0,0,1,.22,0,.85.85,0,0,1,.23.27,4.28,4.28,0,0,1,.17.46s0,.11.06.1,0-.28,0-.32a.52.52,0,0,1,0-.11s0-.12,0-.15.11,0,.15,0l.12.06a1,1,0,0,1,.39.41l.08.1s.06.1.09.08-.11-.36-.12-.43,0-.08.11-.08a1.3,1.3,0,0,0,.44,0s.11,0,.11-.06,0-.06-.06-.07h-.08a3.29,3.29,0,0,1-.71-.12s-.05,0-.06-.05.06-.12.09-.15l.1-.14s.1-.13.08-.15-.11,0-.12.05a2.6,2.6,0,0,1-.36.21.73.73,0,0,1-.46,0c-.16-.06-.58-.26-.45-.49a.27.27,0,0,1,.07-.08.2.2,0,0,1,.17,0,.71.71,0,0,0,.83-.1.62.62,0,0,1,.29-.09h.13a.41.41,0,0,1,.41.3.56.56,0,0,1,0,.21s0,.1,0,.14.1.1.14.12a1.52,1.52,0,0,0,.28.09.45.45,0,0,1,.25.2.49.49,0,0,1,0,.47.53.53,0,0,1-.46.31m.27-3.18c0,.05,0,.1,0,.15.06.31-.1.47-.4.5-.13,0-.27,0-.39,0a.35.35,0,0,0-.23.14.59.59,0,0,1-.31.23,1.52,1.52,0,0,1-.92-.06c-.15-.07-.07-.17,0-.23a1.15,1.15,0,0,1,.69-.08h.09s.13,0,.14,0,0,0,0-.05l-.32-.14c-.09,0,0-.1,0-.13a1.66,1.66,0,0,1,1.12,0s.08,0,.09,0a.08.08,0,0,0,0,0,.7.7,0,0,0-.21-.11l-.2-.09,0,0s.07-.1.09-.12a2.18,2.18,0,0,0,.25-.28l.07-.11s.06-.11,0-.13-.18.09-.21.12a2,2,0,0,1-.26.24.37.37,0,0,1-.43.08.43.43,0,0,1-.16-.24,1.19,1.19,0,0,1,0-.42.72.72,0,0,1,.22-.41l.08-.05a.29.29,0,0,1,.27,0c.06.05.12.16.2.16a.23.23,0,0,0,.14,0,.88.88,0,0,1,.27-.1.18.18,0,0,1,.1,0,.63.63,0,0,1,.26.19.53.53,0,0,1,.12.29.41.41,0,0,1-.1.37.39.39,0,0,0-.1.49m2.91-2c-.07,0,0-.07,0-.08l.2-.07s.22-.08.21-.11-.07-.05-.14,0a2.41,2.41,0,0,1-.72.1.66.66,0,0,1-.23,0,1.7,1.7,0,0,0-.31-.06l-.41,0h-.06c-.1,0-.34,0-.21-.17a1.28,1.28,0,0,1,.54-.32c.17-.07.61-.19.75,0a.23.23,0,0,0,.18.12,1.72,1.72,0,0,0,.45,0,.58.58,0,0,1,.56.22.38.38,0,0,1,0,.33.15.15,0,0,0,0,.16c0,.06.13.12.18.16a.34.34,0,0,1,.11.18.41.41,0,0,1-.11.33.47.47,0,0,1-.37.14.27.27,0,0,0-.27.11l0,.08c-.12.22-.48.18-.67.08s-.36-.46-.47-.49a.57.57,0,0,0-.13,0,.34.34,0,0,1-.35-.1c0-.05-.31-.52-.09-.57a1.08,1.08,0,0,1,.44,0,.8.8,0,0,1,.25.11.76.76,0,0,1,.31.38c.09.16.21.38.28.35s0-.09,0-.11c0-.18-.15-.34-.19-.52,0,0,0,0,0-.05s.15,0,.19.06l.48.21s.19.08.21.05-.11-.14-.14-.16-.3-.18-.44-.28M70.43,22a1.44,1.44,0,0,0-.45.17s-.21.15-.19.2.11,0,.13,0l.39-.15a.93.93,0,0,1,1,.25c0,.06.07.14,0,.2v0c-.08.05-.24,0-.32,0h0a.92.92,0,0,0-.59.05,1.29,1.29,0,0,1-.72.13c-.28-.06-.6-.31-.46-.63l0-.06c.06-.07-.16-.14-.2-.15a.76.76,0,0,1-.22-.11.49.49,0,0,1-.22-.52.52.52,0,0,1,.5-.37h.14a.16.16,0,0,0,.12,0,.14.14,0,0,0,0-.09.75.75,0,0,1,.06-.13.49.49,0,0,1,.66-.19,1.24,1.24,0,0,1,.43.39,2.75,2.75,0,0,0,.22.26.42.42,0,0,0,.21.13.23.23,0,0,0,.11,0c.21-.11.48.22.58.38l.06.14c0,.08.08.22,0,.29s-.38,0-.49-.05a4.39,4.39,0,0,1-.68-.44,2.78,2.78,0,0,1-.43-.41S70,21,70,21.08s0,.06,0,.08a.67.67,0,0,0,.09.14.48.48,0,0,1,.09.11l.08.1s0,.07,0,.08h0a5.43,5.43,0,0,0-.69,0s-.17,0-.17.06.19.09.23.09a3.36,3.36,0,0,1,.78.14.11.11,0,0,1,.08,0c.06,0,.12.08,0,.12Zm4.13,8.06a.43.43,0,0,1-.44-.19c-.07-.1-.14-.24-.29-.24a.16.16,0,0,0-.09.05c-.15.12-.47.2-.6,0a.45.45,0,0,1-.06-.32.92.92,0,0,0,0-.36c0-.1-.1-.12-.2-.13l-.06,0c-.16,0-.16-.15-.15-.28a1.21,1.21,0,0,0,0-.38l-.06-.11-.09-.17c0-.09-.08-.22,0-.3s.25,0,.35,0a1.42,1.42,0,0,1,.68,1.47.2.2,0,0,0,0,.07c0,.07,0,.11.09,0a.85.85,0,0,0,.13-.5c0-.07,0-.15,0-.22v-.06h0l.06.07q.21.33.39.66s.11.2.17.17,0-.28,0-.34a2.25,2.25,0,0,0-.12-.21,1.34,1.34,0,0,1-.13-.27c0-.05,0-.06.08-.06l.12,0c.05,0,.22.06.25,0s-.15-.13-.19-.15l-.35-.16a7.43,7.43,0,0,1-.82-.56l-.06,0s-.16-.12-.1-.17a1,1,0,0,1,.55-.07c.17,0,.57.1.6.3a.29.29,0,0,0,0,.09s0,0,0,.05.2.08.25.1a1.71,1.71,0,0,1,.46.19.68.68,0,0,1,.29.56.25.25,0,0,1,0,.08.24.24,0,0,1-.09.15l-.1,0c-.07,0,0,.17,0,.23a1.62,1.62,0,0,1,0,.19.56.56,0,0,1-.34.63.64.64,0,0,1-.18.06M69.9,26.89c0-.18,0-.35.23-.42a.44.44,0,0,1,.55.16l.1.09a.18.18,0,0,0,.2.05.89.89,0,0,1,.26-.09.82.82,0,0,1,.41.16c.26.19.45.49.16.74a.57.57,0,0,1-.22.11c-.15,0-.33,0-.33-.17a.66.66,0,0,1,0-.15c0-.12-.09-.15-.17-.06s-.07.24-.16.27a.23.23,0,0,1-.16-.06,2,2,0,0,1-.26-.32l0,0v0c-.14-.2-.3-.14-.18.06l0,.05c.05.07.1.14.14.21a.24.24,0,0,1,0,.26.45.45,0,0,1-.47.11.43.43,0,0,1-.16-.73.19.19,0,0,0,0-.16s0,0,0-.05m-.2,1.8c0-.21.17-.37.34-.44a1.14,1.14,0,0,1,.55,0l.11,0a.74.74,0,0,0,.46-.08l.07,0a.55.55,0,0,1,.6-.08.24.24,0,0,1,.08.09c.08.13-.15.29-.24.34a1.08,1.08,0,0,1-.29.13,2.11,2.11,0,0,1-.83.07c-.22,0-.53.06-.06.17l.31.05h0s.1,0,.1,0,0,.06-.06.07a4.39,4.39,0,0,1-.53.27l-.12.05c-.37.15-.24.23,0,.17l.15,0,.36-.15s.15-.08.15,0a1.69,1.69,0,0,1,0,.24c-.11.39,0,.35.17.06a.14.14,0,0,0,0-.06l.06-.15a1.42,1.42,0,0,1,.37-.51c.17-.16.57-.4.81-.29a.18.18,0,0,1,.09.2,1.66,1.66,0,0,1-.15.33c-.06.1-.12.19-.17.29s-.26.49-.5.32a.11.11,0,0,0-.16,0l-.06.07a2.24,2.24,0,0,0-.13.27.63.63,0,0,1-.31.25.39.39,0,0,1-.26,0,.45.45,0,0,1-.2-.12c-.06-.07-.06-.14-.17-.15a.24.24,0,0,0-.12,0c-.11,0-.22.06-.33.08a.61.61,0,0,1-.4-.07.5.5,0,0,1-.13-.12.71.71,0,0,1-.16-.39.45.45,0,0,1,.09-.39,1.2,1.2,0,0,1,.31-.18.21.21,0,0,0,.14-.12.26.26,0,0,0,0-.17M74.27,27a.32.32,0,0,1,.08-.29.43.43,0,0,1,.46,0,.35.35,0,0,1,.19.38.39.39,0,0,1-.32.2.32.32,0,0,1-.41-.25m.73-1.1.25-.22a3.7,3.7,0,0,1,.55-.31c.09-.05.06-.15-.14-.09l-.3.1a1.38,1.38,0,0,0-.27.14l-.26.16c-.08.06-.12.07-.12-.05a1.31,1.31,0,0,0,0-.34.25.25,0,0,0,0-.09,0,0,0,0,0,0,0c-.05,0-.07.12-.08.15a1.57,1.57,0,0,1-.41,1l-.09.08a.94.94,0,0,1-.34.14.34.34,0,0,1-.24-.05c-.24-.18,0-.54.21-.67a.56.56,0,0,0,.26-.38c.06-.31.21-.73.53-.85s.52.12.72.22.16,0,.3,0a1.57,1.57,0,0,1,.3-.05.75.75,0,0,1,.51.12.63.63,0,0,1,.19.24c.09.18.1.39-.11.49a1.67,1.67,0,0,0-.26.17c0,.06,0,.15,0,.22a.24.24,0,0,1-.12.25,1.15,1.15,0,0,1-.59.15,1.38,1.38,0,0,1-.35,0c-.28-.06-.33-.23-.07-.47m6.3-.15c-.08.1-.29.35-.42.19a.39.39,0,0,1,.05-.47,3.63,3.63,0,0,0,.36-.64c0-.05,0-.1,0-.11s-.15.09-.18.12L81,25a.9.9,0,0,1-.15.18c-.08.06-.09,0-.1-.09l-.06-.58a3,3,0,0,0-.15-.59c0-.05-.11-.23-.17-.21s0,.1,0,.13a4.74,4.74,0,0,1,.13.84c0,.11-.1.06-.15,0a4.37,4.37,0,0,0-.44-.31s-.14-.07-.16,0,0,.09,0,.1a.6.6,0,0,0,.08.08,2.3,2.3,0,0,1,.5.53,1.21,1.21,0,0,1,.19.87.19.19,0,0,1-.1.14.28.28,0,0,1-.21-.13,2.53,2.53,0,0,1-.22-.51,1.25,1.25,0,0,0-.42-.57,1.16,1.16,0,0,1-.36-.4.5.5,0,0,1,0-.36.42.42,0,0,1,.38-.28s.18,0,.19,0a.64.64,0,0,0,0-.2.63.63,0,0,1,.65-.83c.47,0,.63.59.69,1a.18.18,0,0,0,.22.17.29.29,0,0,1,.37.24,1.93,1.93,0,0,1-.4,1.57m2.31-3c0,.21-.19.28-.29.44a.18.18,0,0,0,0,.1v.06a.25.25,0,0,1-.07.29.73.73,0,0,1-.41.18l-.28,0c-.26,0-.66,0-.42-.41s.58-.42.76-.59.17-.28-.12-.16a3.92,3.92,0,0,0-.5.32c-.06,0-.11.06-.13.05S82,23,82,22.85a.41.41,0,0,0-.21-.22.05.05,0,0,0-.07.07,1,1,0,0,1,.1.21.67.67,0,0,1,0,.52.2.2,0,0,1-.35,0,.66.66,0,0,1-.08-.26c0-.15-.14-.26-.17-.42a1,1,0,0,1,0-.17.43.43,0,0,1,.1-.25.37.37,0,0,1,.26-.16,1.37,1.37,0,0,1,.59.13.42.42,0,0,0,.45-.12.81.81,0,0,1,.38-.23c.39,0,.72.48.64.84m.69.33a.35.35,0,0,1,0,.42c-.14.26-.51.33-.63,0a.23.23,0,0,1,0-.23.38.38,0,0,1,.21-.2.39.39,0,0,1,.38,0m-1.61,6.06a.33.33,0,0,1-.21.4c-.09,0,0,.19,0,.27a1.09,1.09,0,0,1-.09.6.44.44,0,0,1-.31.24c-.36,0-.41-.23-.52-.45s-.39-.08-.57-.12a.42.42,0,0,1-.33-.28,2.1,2.1,0,0,1,0-.61.69.69,0,0,0-.06-.37c-.16-.2,0-.73.33-.58s.19.69.19.93.06.2.1.15a.32.32,0,0,0,.08-.2c0-.13.06-.55.23-.32a2.88,2.88,0,0,1,.31.81c.1.36.24.38.18-.07a3.23,3.23,0,0,0-.11-.48s0-.11-.06-.17c-.08-.26.06-.32.22-.3a.74.74,0,0,1,.64.55m.71-2.63a.5.5,0,0,0-.46-.24,2.11,2.11,0,0,0-.5.17h0a.2.2,0,0,1-.27,0l0-.06c-.22-.4-.73.05-.87.2a.74.74,0,0,0-.14.23c0,.12-.11.38.11.4s.31-.21.38-.32a1.27,1.27,0,0,0,.13-.19v0c.05-.07.09,0,.08,0l-.06.23a.36.36,0,0,0,0,.09s0,.11,0,.14.13,0,.18,0l.15,0a1.09,1.09,0,0,0,.53-.28s.19-.17.23-.14-.08.18-.1.21a.56.56,0,0,0-.12.16c0,.08,0,.1.13.11a2.24,2.24,0,0,1,.55.11s.12,0,.12.08a.06.06,0,0,1-.08.06h-.1l-.44-.06a2.88,2.88,0,0,0-.41,0c-.07,0-.08,0-.06.08s.24.23.34.33.09.26-.11.13l-.2-.15a2.76,2.76,0,0,0-.35-.24,1.1,1.1,0,0,0-.53-.11c-.16,0-.5.08-.52.26s.23.19.37.19a.75.75,0,0,1,.37,0,1.73,1.73,0,0,1,.4.27,1.49,1.49,0,0,0,.53.25.89.89,0,0,0,.77-.16.21.21,0,0,0,0-.12c0-.23.26-.25.46-.27a.56.56,0,0,0,.39-.17.33.33,0,0,0,.09-.25.54.54,0,0,0-.23-.54.6.6,0,0,0-.22-.09l-.17,0c-.23,0-.23-.08-.34-.29M79.86,26a1.69,1.69,0,0,0-.5-.77.61.61,0,0,0-.37-.12.34.34,0,0,1-.24-.11l-.11-.13a1.16,1.16,0,0,0-.34-.36.33.33,0,0,0-.52.15c-.06.2,0,.32-.47.3s-.56.54-.24.85a1,1,0,0,0,.28.2.16.16,0,0,1,.09.19c0,.18.1.28.21.33.27.1,1.12.12.92-.32s-.64-.46-.88-.52c0,0-.24,0-.24-.09s.2-.05.24-.05a1.14,1.14,0,0,1,.37,0s.13,0,.15,0,0,0,0-.06a1.8,1.8,0,0,0-.06-.22,1.09,1.09,0,0,1,0-.25s0,0,0,0,.06,0,.07.06a3.05,3.05,0,0,0,.58.85s0,0,0,0l.07,0c.16.11.23.12.25,0s-.08-.28,0-.42,0,0,.07,0,.13.29.23.43.55.25.47-.07m-1.24,1.39-.05,0c-.28-.09-.08-.59.38-.65.27,0,.5.1.37.4a.61.61,0,0,1-.07.14c-.12.21.07.2.17.1a.39.39,0,0,0,.08-.1,2,2,0,0,1,.87-.73.33.33,0,0,1,.29,0c.13.09.09.33,0,.54a.78.78,0,0,1-.17.26c-.13.15-.26.23-.4.18L80,27.54c-.09-.07-.14-.09-.31.08a1.26,1.26,0,0,1-.33.27c-.45.22-.84,0-.79-.29,0-.06.07-.14,0-.17m5.62-2.26s.08,0,.08-.05,0,0,0-.05a1.4,1.4,0,0,0-.41-.06h-.36a.75.75,0,0,1-.15,0,.07.07,0,0,1-.06,0s0,0,0-.06l.09-.09a1,1,0,0,1,.13-.09l.11-.08s.06,0,0-.08a.05.05,0,0,0,0,0,.2.2,0,0,0-.11,0l-.12.05c-.15.08-.29.17-.43.26a2.73,2.73,0,0,1-.6.28c-.13.07-.42.1-.39-.24a.58.58,0,0,1,.26-.41c.43-.27.79-.06,1.13-.23a3.3,3.3,0,0,1,.32-.18c.3-.11.66-.1.67.29a.35.35,0,0,0,0,.12.21.21,0,0,0,.12.14l.11,0a.43.43,0,0,1,.14.81l-.23.1c-.08,0-.16.08-.16.17s0,.16,0,.25a.29.29,0,0,1-.07.23.69.69,0,0,1-.79,0L83.27,26a1.94,1.94,0,0,0-.24-.15l-.18-.05c-.16,0-.33,0-.49,0s-.29,0-.31-.17.16-.2.25-.23a1.4,1.4,0,0,1,1.37.19l.12.11s.08.07.11,0,0,0,0-.07a.53.53,0,0,0-.11-.15l-.11-.1s-.16-.11-.17-.14.39-.09.45-.09h.27m.51,4.13a.59.59,0,0,1-.18.52.6.6,0,0,1-.22.09h-.09a.35.35,0,0,0-.36.19.17.17,0,0,1-.06.08.53.53,0,0,1-.29.09.58.58,0,0,1-.32-.07.33.33,0,0,1-.18-.38.2.2,0,0,1,.28-.13.87.87,0,0,1,.11.09c.13.08.16,0,.14-.06s-.2-.33-.22-.47.12-.14.38-.05l.17.06c.25.05.29-.05.18-.14s-.41-.13-.49-.3a.39.39,0,0,1,0-.34c.11-.22.36-.22.59-.09a1.12,1.12,0,0,1,.54.9m-1.61,2.05a1.66,1.66,0,0,0-.12.45.58.58,0,0,1-.08.18c-.42.69-1.45-.26-1.47-.71a.34.34,0,0,1,.41-.37c.36.07.23.43.34.58s.13.07.16,0,0-.22,0-.32a.74.74,0,0,1,.13-.33.67.67,0,0,1,.15-.14.42.42,0,0,1,.66.12c.1.23-.08.37-.21.58M80.53,32s.1,0,.11,0,0-.09-.09-.16a1.3,1.3,0,0,0-.29-.2l-.09,0c-.06,0-.15,0,0-.15s.2-.17.2-.26-.07,0-.12,0a.79.79,0,0,1-.3.12,1.18,1.18,0,0,1-.59,0,.27.27,0,0,1-.18-.3.29.29,0,0,1,.13-.23.42.42,0,0,1,.43,0,.18.18,0,0,0,.22,0c.27-.18.63-.28.83,0a.53.53,0,0,1,0,.43.36.36,0,0,0,0,.25.34.34,0,0,0,.21.16l0,0a.7.7,0,0,1,.4.52.61.61,0,0,1-.18.61.56.56,0,0,1-.6.1.87.87,0,0,1-.4-.31l-.08-.12c-.09-.11-.2-.22-.3-.32s-.13-.15-.09-.22A.14.14,0,0,1,80,31.8c.15,0,.38.18.53.23m-1.21.17c.23-.22.47,0,.47.28s-.08.31-.22.34a.26.26,0,0,1-.17,0,.54.54,0,0,1-.14-.16.3.3,0,0,1,.06-.41m-.86-2.47c0,.05-.19.33-.08.37s.14-.16.24-.3a1.47,1.47,0,0,0,.1-.13,4,4,0,0,1,.44-.55l.15-.12c.08,0,.08,0,.07.09s0,.18,0,.32.06.2.1.2.06-.19.06-.24a1.77,1.77,0,0,1,.08-.56.82.82,0,0,1,.28-.38c.06-.05.19-.13.27-.06s0,.18,0,.25a1.17,1.17,0,0,0,0,.11,1.81,1.81,0,0,0-.18.76c0,.28,0,.74-.44.74a.19.19,0,0,1-.13,0,.28.28,0,0,0-.13,0c-.1,0-.13.09-.16.17a.79.79,0,0,1-1.06.5.62.62,0,0,1-.36-.83c0-.05.16-.32,0-.33a.33.33,0,0,1-.27-.16c-.14-.39.29-.62.61-.69a1.5,1.5,0,0,0,.36-.11c.21-.09.41-.27.64-.37a.7.7,0,0,1,.4-.05c.07,0,.1.05.1.08s-.49.49-.63.58a2.1,2.1,0,0,1-.6.26c-.17.06-.18.14,0,.13l.16,0h.06c.15,0,.11,0,.06.12l-.19.31m-.45,2c-.21-.46.24-.5.53-.31a1.3,1.3,0,0,1,.36.38c.09.16.13.45-.1.5s-.07.11,0,.18c.1.23.21.33.12.6-.14.43-.8.67-1,.16a.26.26,0,0,0-.05-.09.11.11,0,0,0-.18,0c-.12.09-.2.16-.36.08a.72.72,0,0,1-.23-1,.89.89,0,0,0,.18-.38c0-.09,0-.19.15-.2a.22.22,0,0,1,.22.16,1,1,0,0,1,0,.5s-.07.21,0,.23.13-.11.15-.15.1-.29.17-.31,0,0,.07,0a2,2,0,0,1,.18.56s0,.08.06.07.07-.15.07-.19a1.82,1.82,0,0,0-.24-.78m-1.2,0c-.16.09-.22.09-.35-.05s-.15,0-.19.1a.6.6,0,0,1-.09.13.54.54,0,0,1-.09.12.52.52,0,0,1-.79-.25.71.71,0,0,1,0-.29c0-.06,0-.25,0-.29a.22.22,0,0,0-.16,0,.23.23,0,0,1-.3-.16.55.55,0,0,1,0-.47,1.24,1.24,0,0,1,.5-.49,1.08,1.08,0,0,0,.47-.52c0-.11.09-.23.15-.34.15-.26.31-.14.31.1a1.71,1.71,0,0,1-.1.46,1.25,1.25,0,0,1-.52.69l-.18.09s-.16.06-.14.11.06,0,.08,0h0a1,1,0,0,0,.4-.15.46.46,0,0,1,.16-.07h0c.09.05-.07.5-.1.58s-.14.36-.07.39.14-.13.16-.16l0-.1c0-.16.11-.31.16-.46s.07-.2.1-.29a.53.53,0,0,1,.06-.1c.05,0,.08.1.09.13s0,.12,0,.18a1.16,1.16,0,0,0,0,.18.28.28,0,0,0,0,.13s0,.12.07.12,0-.18,0-.22a2.63,2.63,0,0,0-.12-.61,2.43,2.43,0,0,1-.1-.61.55.55,0,0,1,.06-.28c.12-.19.38,0,.46.14a1.26,1.26,0,0,1,.16.33,3.4,3.4,0,0,1,.07.34c0,.05,0,.22-.1.21a.09.09,0,0,0-.08,0,.16.16,0,0,0,0,.08.2.2,0,0,0,0,.11c0,.1,0,.2,0,.3s0,.23,0,.34a.55.55,0,0,1-.23.5M62.22,28.46c0,.22-.07.32-.19.47a.37.37,0,0,0-.05.18c0,.29.05.56-.24.71a.74.74,0,0,1-.6.05.65.65,0,0,1-.3-.31c-.12-.22-.19-.44-.47-.4s-.48-.09-.48-.49a2.44,2.44,0,0,1,.09-.54,1.58,1.58,0,0,0,.05-.61c0-.12-.06-.23-.08-.35s0-.25.09-.28.34.24.41.38a1.18,1.18,0,0,1,.21.73l0,.17c0,.11-.09.2-.13.31s0,.1,0,.12.07,0,.11-.06.09-.15.14-.21.09-.14.14-.14.08.14.09.18.09.28.14.42.13.4.21.38,0-.08,0-.09a3.18,3.18,0,0,0-.1-.52.19.19,0,0,1,0-.07c-.05-.17,0-.21.07-.17a1,1,0,0,0,.31.09c.06,0,.12,0,.13,0s-.18-.14-.21-.16a1.1,1.1,0,0,1-.49-.36,2,2,0,0,1-.1-.21s-.06-.11,0-.13h0a1.67,1.67,0,0,0,.5,0c.07,0,.09-.07,0-.09h0a3.4,3.4,0,0,1-.46-.09.86.86,0,0,1-.41-.32l-.07-.11c0-.06,0-.1,0-.14s.31,0,.4.07l.22.09.17.05a.71.71,0,0,1,.49.23.57.57,0,0,1,.08.49.33.33,0,0,0,.08.31c.16.17.26.2.3.45m1.26,13.4a14.38,14.38,0,0,1-1.8-.78h0L61.55,41a.75.75,0,0,1-.13-.11.28.28,0,0,1,0-.18.19.19,0,0,1,0-.08c.1-.16.26-.21.36-.11s.11.28.28.4a.14.14,0,0,0,.12,0c.06,0,.09-.06.06-.16a.69.69,0,0,0,0-.1.57.57,0,0,1,.08-.65c.07-.05.15-.08.2-.05a.1.1,0,0,1,0,.1c0,.06,0,.11,0,.15a1,1,0,0,0,.37.89.61.61,0,0,0,.3.17c.11,0,.12-.07.05-.15a.78.78,0,0,1-.14-.2c-.19-.32-.32-.85,0-1.14a.58.58,0,0,1,.15-.11s0,0,.08,0,.18.05.11.19a.87.87,0,0,0-.13.35.81.81,0,0,0,0,.22,1,1,0,0,0,.35.61l.12.11.33.34c.11.13.29.16.23-.1,0-.09,0-.18-.06-.22s0-.06,0-.1V41c0-.11.15-.1.21,0a5,5,0,0,1,.37.53l.14.2.12.13c.27.2.22,0,.16-.23A3,3,0,0,1,65,41c0-.11,0-.19,0-.22s.13,0,.2.12c.23.32.32.62.6,1s.28.25.28.14a10.25,10.25,0,0,0-.31-1c0-.06,0-.11,0-.15s0-.21,0-.25.09,0,.17.12a1.18,1.18,0,0,1,.11.18c.12.22.24.5.39.76s.28.5.38.46,0-.18,0-.45-.35-1.09-.2-1.12.14,0,.21.14.21.38.34.62a5.14,5.14,0,0,0,.53.81c.12.1.17,0,.11-.19-.14-.44-.21-.6-.33-1,0-.1,0-.2,0-.23s.14,0,.21.14.11.16.2.31c.19.3.33.57.51.85.07.11.14.19.2.17s.09-.17.08-.32a.76.76,0,0,1,0-.16c0-.21.19-.18.29,0s.18.37.27.47.12.1.16,0-.1-1.09.1-1.11.12,0,.17.12a8.33,8.33,0,0,0,.41.94l.07,0c.23-.06-.08-1.43.16-1.48s.28.56.38,1c0,.14.12.41.27.4s.1-.4.09-.51c0-.35,0-.9.23-.9s.26.46.21.76a1.93,1.93,0,0,1,0,.2c-.06.25,0,.39,0,.42s.3-.14.42-.49c.06-.15.1-.31.17-.45s.09-.15.16-.14.09.09.11.15a1.92,1.92,0,0,1,0,.44c0,.26,0,.58.22.27s.18-.33.28-.5.13-.17.19-.16.1.11.09.2-.06.28,0,.39,0,0,.11,0,.22-.37.4-.5.28-.05.21.18c0,.07,0,.13,0,.15a.15.15,0,0,0,.15,0,1.58,1.58,0,0,0,.5-.6.94.94,0,0,0-.06-.69,3.11,3.11,0,0,1-.18-.4c0-.06,0-.11,0-.15a.08.08,0,0,1,0-.07s.1,0,.17,0a1.05,1.05,0,0,1,.47.8,1.18,1.18,0,0,1-.06.56.62.62,0,0,0,0,.16s0,.05.06,0a.46.46,0,0,0,.32-.3,1.61,1.61,0,0,0,.08-.38,1.87,1.87,0,0,0,0-.46c0-.12,0-.18.08-.16a.44.44,0,0,1,.29.36,1.19,1.19,0,0,1,0,.46c-.05.27.2.23.26.07a1.42,1.42,0,0,1,.11-.31.19.19,0,0,1,.27-.06.32.32,0,0,1,.09.08.25.25,0,0,1,0,.38,2,2,0,0,1-.44.25,15.88,15.88,0,0,1-7,1.6,16.12,16.12,0,0,1-5.4-.93h0m8.74-15.17-.06-.06L72,26.42c-.13-.16-.14-.18,0-.37.23-.41.21-.38.48-.84a.5.5,0,0,1,.09-.12A.15.15,0,0,1,72.6,25c.28-.13.73.1.54.42h0c0,.11-.19.5-.32.86,0,.07,0,.16-.08.24a.3.3,0,0,1-.52.13"/></g></svg>